<?xml version="1.0" encoding="UTF-8" standalone="no"?>
<!DOCTYPE svg PUBLIC "-//W3C//DTD SVG 1.1//EN"
 "http://www.w3.org/Graphics/SVG/1.1/DTD/svg11.dtd">
<!-- Generated by graphviz version 2.43.0 (0)
 -->
<!-- Title: FireworksArchitecture Pages: 1 -->
<svg width="2443pt" height="1064pt"
 viewBox="0.00 0.00 2443.00 1063.63" xmlns="http://www.w3.org/2000/svg" xmlns:xlink="http://www.w3.org/1999/xlink">
<g id="graph0" class="graph" transform="scale(1 1) rotate(0) translate(4 1059.63)">
<title>FireworksArchitecture</title>
<polygon fill="white" stroke="transparent" points="-4,4 -4,-1059.63 2439,-1059.63 2439,4 -4,4"/>
<g id="clust1" class="cluster">
<title>cluster_legend</title>
<polygon fill="none" stroke="gray" stroke-dasharray="5,2" points="124,-949.63 124,-1047.63 621,-1047.63 621,-949.63 124,-949.63"/>
<text text-anchor="middle" x="372.5" y="-1032.43" font-family="Times,serif" font-size="14.00" fill="gray">Legend</text>
</g>
<g id="clust2" class="cluster">
<title>cluster_core</title>
<polygon fill="#f0f8ff" stroke="black" points="610,-8 610,-106 726,-106 726,-8 610,-8"/>
<text text-anchor="middle" x="668" y="-90.8" font-family="Times,serif" font-size="14.00">Core Systems</text>
</g>
<g id="clust3" class="cluster">
<title>cluster_render</title>
<polygon fill="#f0fff0" stroke="black" points="1786,-247 1786,-345 2050,-345 2050,-247 1786,-247"/>
<text text-anchor="middle" x="1918" y="-329.8" font-family="Times,serif" font-size="14.00">Rendering Pipeline</text>
</g>
<g id="clust4" class="cluster">
<title>cluster_ui</title>
<polygon fill="#fff8dc" stroke="black" points="808,-499.63 808,-597.63 1177,-597.63 1177,-499.63 808,-499.63"/>
<text text-anchor="middle" x="992.5" y="-582.43" font-family="Times,serif" font-size="14.00">User Interface</text>
</g>
<g id="clust5" class="cluster">
<title>cluster_data</title>
<polygon fill="#fff0f5" stroke="black" points="1157,-247 1157,-345 1283,-345 1283,-247 1157,-247"/>
<text text-anchor="middle" x="1220" y="-329.8" font-family="Times,serif" font-size="14.00">Configuration</text>
</g>
<!-- leg_core -->
<g id="node1" class="node">
<title>leg_core</title>
<path fill="#4a90d9" stroke="black" d="M601,-993.63C601,-993.63 545,-993.63 545,-993.63 539,-993.63 533,-987.63 533,-981.63 533,-981.63 533,-969.63 533,-969.63 533,-963.63 539,-957.63 545,-957.63 545,-957.63 601,-957.63 601,-957.63 607,-957.63 613,-963.63 613,-969.63 613,-969.63 613,-981.63 613,-981.63 613,-987.63 607,-993.63 601,-993.63"/>
<text text-anchor="middle" x="573" y="-972.83" font-family="Arial" font-size="11.00" fill="white">Core System</text>
</g>
<!-- leg_render -->
<g id="node2" class="node">
<title>leg_render</title>
<path fill="#50c878" stroke="black" d="M462.5,-993.63C462.5,-993.63 419.5,-993.63 419.5,-993.63 413.5,-993.63 407.5,-987.63 407.5,-981.63 407.5,-981.63 407.5,-969.63 407.5,-969.63 407.5,-963.63 413.5,-957.63 419.5,-957.63 419.5,-957.63 462.5,-957.63 462.5,-957.63 468.5,-957.63 474.5,-963.63 474.5,-969.63 474.5,-969.63 474.5,-981.63 474.5,-981.63 474.5,-987.63 468.5,-993.63 462.5,-993.63"/>
<text text-anchor="middle" x="441" y="-972.83" font-family="Arial" font-size="11.00" fill="white">Rendering</text>
</g>
<!-- leg_ui -->
<g id="node3" class="node">
<title>leg_ui</title>
<path fill="#ffb347" stroke="black" d="M337.5,-993.63C337.5,-993.63 276.5,-993.63 276.5,-993.63 270.5,-993.63 264.5,-987.63 264.5,-981.63 264.5,-981.63 264.5,-969.63 264.5,-969.63 264.5,-963.63 270.5,-957.63 276.5,-957.63 276.5,-957.63 337.5,-957.63 337.5,-957.63 343.5,-957.63 349.5,-963.63 349.5,-969.63 349.5,-969.63 349.5,-981.63 349.5,-981.63 349.5,-987.63 343.5,-993.63 337.5,-993.63"/>
<text text-anchor="middle" x="307" y="-972.83" font-family="Arial" font-size="11.00">User Interface</text>
</g>
<!-- leg_data -->
<g id="node4" class="node">
<title>leg_data</title>
<path fill="#dda0dd" stroke="black" d="M194,-993.63C194,-993.63 144,-993.63 144,-993.63 138,-993.63 132,-987.63 132,-981.63 132,-981.63 132,-969.63 132,-969.63 132,-963.63 138,-957.63 144,-957.63 144,-957.63 194,-957.63 194,-957.63 200,-957.63 206,-963.63 206,-969.63 206,-969.63 206,-981.63 206,-981.63 206,-987.63 200,-993.63 194,-993.63"/>
<text text-anchor="middle" x="169" y="-972.83" font-family="Arial" font-size="11.00">Data/Config</text>
</g>
<!-- start -->
<g id="node5" class="node">
<title>start</title>
<ellipse fill="#e8e8e8" stroke="black" cx="715" cy="-975.63" rx="44.5" ry="18"/>
<text text-anchor="middle" x="715" y="-972.83" font-family="Arial" font-size="11.00">HTML Load</text>
</g>
<!-- animLoop -->
<g id="node6" class="node">
<title>animLoop</title>
<path fill="#4a90d9" stroke="black" d="M1460.5,-782.63C1460.5,-782.63 1407.5,-782.63 1407.5,-782.63 1401.5,-782.63 1395.5,-776.63 1395.5,-770.63 1395.5,-770.63 1395.5,-758.63 1395.5,-758.63 1395.5,-752.63 1401.5,-746.63 1407.5,-746.63 1407.5,-746.63 1460.5,-746.63 1460.5,-746.63 1466.5,-746.63 1472.5,-752.63 1472.5,-758.63 1472.5,-758.63 1472.5,-770.63 1472.5,-770.63 1472.5,-776.63 1466.5,-782.63 1460.5,-782.63"/>
<text text-anchor="middle" x="1434" y="-767.83" font-family="Arial" font-size="11.00" fill="white">Animation</text>
<text text-anchor="middle" x="1434" y="-755.83" font-family="Arial" font-size="11.00" fill="white">Loop (60fps)</text>
</g>
<!-- start&#45;&gt;animLoop -->
<g id="edge1" class="edge">
<title>start&#45;&gt;animLoop</title>
<path fill="none" stroke="black" d="M750.17,-964.41C868.16,-930.11 1250.19,-819.06 1385.74,-779.65"/>
<polygon fill="black" stroke="black" points="1386.82,-782.99 1395.45,-776.83 1384.87,-776.26 1386.82,-782.99"/>
</g>
<!-- particlePool -->
<g id="node7" class="node">
<title>particlePool</title>
<path fill="#4a90d9" stroke="black" d="M1328.5,-543.63C1328.5,-543.63 1239.5,-543.63 1239.5,-543.63 1233.5,-543.63 1227.5,-537.63 1227.5,-531.63 1227.5,-531.63 1227.5,-519.63 1227.5,-519.63 1227.5,-513.63 1233.5,-507.63 1239.5,-507.63 1239.5,-507.63 1328.5,-507.63 1328.5,-507.63 1334.5,-507.63 1340.5,-513.63 1340.5,-519.63 1340.5,-519.63 1340.5,-531.63 1340.5,-531.63 1340.5,-537.63 1334.5,-543.63 1328.5,-543.63"/>
<text text-anchor="middle" x="1284" y="-528.83" font-family="Arial" font-size="11.00" fill="white">Particle Pool</text>
<text text-anchor="middle" x="1284" y="-516.83" font-family="Arial" font-size="11.00" fill="white">(100k pre&#45;allocated)</text>
</g>
<!-- start&#45;&gt;particlePool -->
<g id="edge4" class="edge">
<title>start&#45;&gt;particlePool</title>
<path fill="none" stroke="black" d="M715,-957.33C715,-936.69 715,-901.14 715,-870.63 715,-870.63 715,-870.63 715,-653.63 715,-547.12 1092.27,-637.59 1191,-597.63 1217.29,-586.99 1242.57,-566.83 1260.11,-550.71"/>
<polygon fill="black" stroke="black" points="1262.74,-553.04 1267.61,-543.63 1257.93,-547.95 1262.74,-553.04"/>
</g>
<!-- threejs -->
<g id="node8" class="node">
<title>threejs</title>
<path fill="#4a90d9" stroke="black" d="M2079,-543.63C2079,-543.63 2047,-543.63 2047,-543.63 2041,-543.63 2035,-537.63 2035,-531.63 2035,-531.63 2035,-519.63 2035,-519.63 2035,-513.63 2041,-507.63 2047,-507.63 2047,-507.63 2079,-507.63 2079,-507.63 2085,-507.63 2091,-513.63 2091,-519.63 2091,-519.63 2091,-531.63 2091,-531.63 2091,-537.63 2085,-543.63 2079,-543.63"/>
<text text-anchor="middle" x="2063" y="-528.83" font-family="Arial" font-size="11.00" fill="white">Three.js</text>
<text text-anchor="middle" x="2063" y="-516.83" font-family="Arial" font-size="11.00" fill="white">Setup</text>
</g>
<!-- start&#45;&gt;threejs -->
<g id="edge3" class="edge">
<title>start&#45;&gt;threejs</title>
<path fill="none" stroke="black" d="M759.43,-973.58C992.37,-967.78 2062,-937.51 2062,-870.63 2062,-870.63 2062,-870.63 2062,-653.63 2062,-619.29 2062.37,-579.72 2062.66,-554"/>
<polygon fill="black" stroke="black" points="2066.16,-553.92 2062.78,-543.88 2059.16,-553.84 2066.16,-553.92"/>
</g>
<!-- audio -->
<g id="node9" class="node">
<title>audio</title>
<path fill="#4a90d9" stroke="black" d="M687.5,-52C687.5,-52 648.5,-52 648.5,-52 642.5,-52 636.5,-46 636.5,-40 636.5,-40 636.5,-28 636.5,-28 636.5,-22 642.5,-16 648.5,-16 648.5,-16 687.5,-16 687.5,-16 693.5,-16 699.5,-22 699.5,-28 699.5,-28 699.5,-40 699.5,-40 699.5,-46 693.5,-52 687.5,-52"/>
<text text-anchor="middle" x="668" y="-37.2" font-family="Arial" font-size="11.00" fill="white">Audio8Bit</text>
<text text-anchor="middle" x="668" y="-25.2" font-family="Arial" font-size="11.00" fill="white">Class</text>
</g>
<!-- start&#45;&gt;audio -->
<g id="edge2" class="edge">
<title>start&#45;&gt;audio</title>
<path fill="none" stroke="black" d="M682.66,-963.07C668.23,-958.29 650.93,-953.08 635,-949.63 565.51,-934.57 0,-941.73 0,-870.63 0,-870.63 0,-870.63 0,-162 0,-98.01 479.19,-51.31 625.86,-38.52"/>
<polygon fill="black" stroke="black" points="626.57,-41.97 636.23,-37.62 625.97,-34.99 626.57,-41.97"/>
</g>
<!-- timeline -->
<g id="node10" class="node">
<title>timeline</title>
<path fill="#4a90d9" stroke="black" d="M424,-543.63C424,-543.63 392,-543.63 392,-543.63 386,-543.63 380,-537.63 380,-531.63 380,-531.63 380,-519.63 380,-519.63 380,-513.63 386,-507.63 392,-507.63 392,-507.63 424,-507.63 424,-507.63 430,-507.63 436,-513.63 436,-519.63 436,-519.63 436,-531.63 436,-531.63 436,-537.63 430,-543.63 424,-543.63"/>
<text text-anchor="middle" x="408" y="-528.83" font-family="Arial" font-size="11.00" fill="white">Timeline</text>
<text text-anchor="middle" x="408" y="-516.83" font-family="Arial" font-size="11.00" fill="white">System</text>
</g>
<!-- start&#45;&gt;timeline -->
<g id="edge5" class="edge">
<title>start&#45;&gt;timeline</title>
<path fill="none" stroke="black" d="M680.97,-964.02C601.04,-938.98 408,-877.77 408,-870.63 408,-870.63 408,-870.63 408,-653.63 408,-619.29 408,-579.72 408,-554"/>
<polygon fill="black" stroke="black" points="411.5,-553.88 408,-543.88 404.5,-553.88 411.5,-553.88"/>
</g>
<!-- animLoop&#45;&gt;timeline -->
<g id="edge17" class="edge">
<title>animLoop&#45;&gt;timeline</title>
<path fill="none" stroke="black" d="M1395.3,-760.28C1237.44,-746.11 642.86,-687.63 480,-597.63 459.2,-586.13 440.26,-566.93 427.03,-551.4"/>
<polygon fill="black" stroke="black" points="429.72,-549.16 420.66,-543.67 424.32,-553.61 429.72,-549.16"/>
<text text-anchor="middle" x="707.5" y="-652.43" font-family="Arial" font-size="9.00">updatePlayback()</text>
</g>
<!-- renderer -->
<g id="node12" class="node">
<title>renderer</title>
<path fill="#50c878" stroke="black" d="M2029.5,-291C2029.5,-291 1954.5,-291 1954.5,-291 1948.5,-291 1942.5,-285 1942.5,-279 1942.5,-279 1942.5,-267 1942.5,-267 1942.5,-261 1948.5,-255 1954.5,-255 1954.5,-255 2029.5,-255 2029.5,-255 2035.5,-255 2041.5,-261 2041.5,-267 2041.5,-267 2041.5,-279 2041.5,-279 2041.5,-285 2035.5,-291 2029.5,-291"/>
<text text-anchor="middle" x="1992" y="-270.2" font-family="Arial" font-size="11.00" fill="white">WebGLRenderer</text>
</g>
<!-- animLoop&#45;&gt;renderer -->
<g id="edge16" class="edge">
<title>animLoop&#45;&gt;renderer</title>
<path fill="none" stroke="black" d="M1472.68,-763.65C1591.46,-762.69 1943,-751.72 1943,-655.63 1943,-655.63 1943,-655.63 1943,-410 1943,-369.99 1962,-327.07 1976.34,-300.38"/>
<polygon fill="black" stroke="black" points="1979.58,-301.76 1981.37,-291.32 1973.46,-298.36 1979.58,-301.76"/>
<text text-anchor="middle" x="1960" y="-523.43" font-family="Arial" font-size="9.00">render()</text>
</g>
<!-- bufferGeom -->
<g id="node13" class="node">
<title>bufferGeom</title>
<path fill="#50c878" stroke="black" d="M1815,-547.63C1815,-547.63 1739,-547.63 1739,-547.63 1733,-547.63 1727,-541.63 1727,-535.63 1727,-535.63 1727,-515.63 1727,-515.63 1727,-509.63 1733,-503.63 1739,-503.63 1739,-503.63 1815,-503.63 1815,-503.63 1821,-503.63 1827,-509.63 1827,-515.63 1827,-515.63 1827,-535.63 1827,-535.63 1827,-541.63 1821,-547.63 1815,-547.63"/>
<text text-anchor="middle" x="1777" y="-534.83" font-family="Arial" font-size="11.00" fill="white">BufferGeometry</text>
<text text-anchor="middle" x="1777" y="-522.83" font-family="Arial" font-size="11.00" fill="white">(positions, colors,</text>
<text text-anchor="middle" x="1777" y="-510.83" font-family="Arial" font-size="11.00" fill="white">sizes, alphas)</text>
</g>
<!-- animLoop&#45;&gt;bufferGeom -->
<g id="edge15" class="edge">
<title>animLoop&#45;&gt;bufferGeom</title>
<path fill="none" stroke="black" d="M1472.7,-763.34C1524.5,-761.06 1616.92,-750.15 1678,-703.63 1726.96,-666.34 1755.21,-597.46 1768.21,-557.51"/>
<polygon fill="black" stroke="black" points="1771.61,-558.36 1771.26,-547.77 1764.93,-556.27 1771.61,-558.36"/>
<text text-anchor="middle" x="1734.5" y="-652.43" font-family="Arial" font-size="9.00">sync</text>
</g>
<!-- rocket -->
<g id="node24" class="node">
<title>rocket</title>
<path fill="#ff6b6b" stroke="black" d="M683,-291C683,-291 653,-291 653,-291 647,-291 641,-285 641,-279 641,-279 641,-267 641,-267 641,-261 647,-255 653,-255 653,-255 683,-255 683,-255 689,-255 695,-261 695,-267 695,-267 695,-279 695,-279 695,-285 689,-291 683,-291"/>
<text text-anchor="middle" x="668" y="-276.2" font-family="Arial" font-size="11.00" fill="white">Rocket</text>
<text text-anchor="middle" x="668" y="-264.2" font-family="Arial" font-size="11.00" fill="white">Class</text>
</g>
<!-- animLoop&#45;&gt;rocket -->
<g id="edge14" class="edge">
<title>animLoop&#45;&gt;rocket</title>
<path fill="none" stroke="black" d="M1395.48,-753.59C1312.62,-732.25 1111.08,-681.7 940,-649.63 860.77,-634.77 633.76,-658.58 581,-597.63 504.06,-508.74 602.78,-358.55 647.79,-299.21"/>
<polygon fill="black" stroke="black" points="650.69,-301.19 654.02,-291.13 645.14,-296.91 650.69,-301.19"/>
<text text-anchor="middle" x="598.5" y="-523.43" font-family="Arial" font-size="9.00">update()</text>
</g>
<!-- particle -->
<g id="node25" class="node">
<title>particle</title>
<path fill="#ff6b6b" stroke="black" d="M1375,-291C1375,-291 1345,-291 1345,-291 1339,-291 1333,-285 1333,-279 1333,-279 1333,-267 1333,-267 1333,-261 1339,-255 1345,-255 1345,-255 1375,-255 1375,-255 1381,-255 1387,-261 1387,-267 1387,-267 1387,-279 1387,-279 1387,-285 1381,-291 1375,-291"/>
<text text-anchor="middle" x="1360" y="-276.2" font-family="Arial" font-size="11.00" fill="white">Particle</text>
<text text-anchor="middle" x="1360" y="-264.2" font-family="Arial" font-size="11.00" fill="white">Class</text>
</g>
<!-- animLoop&#45;&gt;particle -->
<g id="edge13" class="edge">
<title>animLoop&#45;&gt;particle</title>
<path fill="none" stroke="black" d="M1472.56,-760.03C1530.68,-752.26 1634,-728.24 1634,-655.63 1634,-655.63 1634,-655.63 1634,-410 1634,-305.73 1472.82,-281.4 1397.7,-275.73"/>
<polygon fill="black" stroke="black" points="1397.49,-272.2 1387.27,-275.02 1397.01,-279.19 1397.49,-272.2"/>
<text text-anchor="middle" x="1651.5" y="-523.43" font-family="Arial" font-size="9.00">update()</text>
</g>
<!-- particlePool&#45;&gt;bufferGeom -->
<g id="edge10" class="edge">
<title>particlePool&#45;&gt;bufferGeom</title>
<path fill="none" stroke="black" d="M1297.98,-543.68C1317.57,-567.34 1355.68,-607.67 1399,-623.63 1452.17,-643.21 1600.51,-642.33 1654,-623.63 1692.61,-610.13 1728.14,-578.88 1750.99,-555.27"/>
<polygon fill="black" stroke="black" points="1753.62,-557.57 1757.95,-547.9 1748.53,-552.77 1753.62,-557.57"/>
</g>
<!-- particlePool&#45;&gt;particle -->
<g id="edge9" class="edge">
<title>particlePool&#45;&gt;particle</title>
<path fill="none" stroke="black" d="M1289.22,-507.4C1302.24,-464.46 1336.22,-352.43 1351.88,-300.79"/>
<polygon fill="black" stroke="black" points="1355.29,-301.6 1354.84,-291.02 1348.59,-299.57 1355.29,-301.6"/>
</g>
<!-- camera -->
<g id="node11" class="node">
<title>camera</title>
<path fill="#50c878" stroke="black" d="M2423,-543.63C2423,-543.63 2335,-543.63 2335,-543.63 2329,-543.63 2323,-537.63 2323,-531.63 2323,-531.63 2323,-519.63 2323,-519.63 2323,-513.63 2329,-507.63 2335,-507.63 2335,-507.63 2423,-507.63 2423,-507.63 2429,-507.63 2435,-513.63 2435,-519.63 2435,-519.63 2435,-531.63 2435,-531.63 2435,-537.63 2429,-543.63 2423,-543.63"/>
<text text-anchor="middle" x="2379" y="-522.83" font-family="Arial" font-size="11.00" fill="white">PerspectiveCamera</text>
</g>
<!-- threejs&#45;&gt;camera -->
<g id="edge7" class="edge">
<title>threejs&#45;&gt;camera</title>
<path fill="none" stroke="black" d="M2091.08,-525.63C2164.84,-525.63 2238.6,-525.63 2312.36,-525.63"/>
<polygon fill="black" stroke="black" points="2312.77,-529.13 2322.77,-525.63 2312.77,-522.13 2312.77,-529.13"/>
</g>
<!-- threejs&#45;&gt;renderer -->
<g id="edge8" class="edge">
<title>threejs&#45;&gt;renderer</title>
<path fill="none" stroke="black" d="M2058.12,-507.4C2045.96,-464.46 2014.22,-352.43 1999.59,-300.79"/>
<polygon fill="black" stroke="black" points="2002.91,-299.68 1996.82,-291.02 1996.18,-301.59 2002.91,-299.68"/>
</g>
<!-- scene -->
<g id="node15" class="node">
<title>scene</title>
<path fill="#50c878" stroke="black" d="M2096.5,-52C2096.5,-52 2031.5,-52 2031.5,-52 2025.5,-52 2019.5,-46 2019.5,-40 2019.5,-40 2019.5,-28 2019.5,-28 2019.5,-22 2025.5,-16 2031.5,-16 2031.5,-16 2096.5,-16 2096.5,-16 2102.5,-16 2108.5,-22 2108.5,-28 2108.5,-28 2108.5,-40 2108.5,-40 2108.5,-46 2102.5,-52 2096.5,-52"/>
<text text-anchor="middle" x="2064" y="-31.2" font-family="Arial" font-size="11.00" fill="white">THREE.Scene</text>
</g>
<!-- threejs&#45;&gt;scene -->
<g id="edge6" class="edge">
<title>threejs&#45;&gt;scene</title>
<path fill="none" stroke="black" d="M2091.08,-512.4C2125.41,-495.32 2179,-460.84 2179,-412 2179,-412 2179,-412 2179,-162 2179,-116.26 2137.51,-79.65 2104.38,-57.71"/>
<polygon fill="black" stroke="black" points="2106.04,-54.61 2095.73,-52.18 2102.27,-60.51 2106.04,-54.61"/>
</g>
<!-- timeline&#45;&gt;rocket -->
<g id="edge24" class="edge">
<title>timeline&#45;&gt;rocket</title>
<path fill="none" stroke="black" d="M404.79,-507.56C401.13,-483.62 397.5,-439.25 413,-406 452.33,-321.65 569.92,-290.12 630.7,-279.24"/>
<polygon fill="black" stroke="black" points="631.38,-282.67 640.66,-277.55 630.21,-275.77 631.38,-282.67"/>
<text text-anchor="middle" x="442" y="-408.8" font-family="Arial" font-size="9.00">launch at time</text>
</g>
<!-- pointsMaterial -->
<g id="node14" class="node">
<title>pointsMaterial</title>
<path fill="#50c878" stroke="black" d="M1872,-291C1872,-291 1806,-291 1806,-291 1800,-291 1794,-285 1794,-279 1794,-279 1794,-267 1794,-267 1794,-261 1800,-255 1806,-255 1806,-255 1872,-255 1872,-255 1878,-255 1884,-261 1884,-267 1884,-267 1884,-279 1884,-279 1884,-285 1878,-291 1872,-291"/>
<text text-anchor="middle" x="1839" y="-276.2" font-family="Arial" font-size="11.00" fill="white">PointsMaterial</text>
<text text-anchor="middle" x="1839" y="-264.2" font-family="Arial" font-size="11.00" fill="white">(additive blend)</text>
</g>
<!-- bufferGeom&#45;&gt;pointsMaterial -->
<g id="edge11" class="edge">
<title>bufferGeom&#45;&gt;pointsMaterial</title>
<path fill="none" stroke="black" d="M1782.29,-503.26C1793.55,-457.73 1819.9,-351.22 1832.31,-301.05"/>
<polygon fill="black" stroke="black" points="1835.73,-301.79 1834.74,-291.24 1828.94,-300.11 1835.73,-301.79"/>
</g>
<!-- pointsMaterial&#45;&gt;scene -->
<g id="edge12" class="edge">
<title>pointsMaterial&#45;&gt;scene</title>
<path fill="none" stroke="black" d="M1855.18,-254.96C1894.41,-213.63 1994.72,-107.97 2040.54,-59.71"/>
<polygon fill="black" stroke="black" points="2043.32,-61.87 2047.66,-52.21 2038.24,-57.05 2043.32,-61.87"/>
</g>
<!-- fireworkPalette -->
<g id="node16" class="node">
<title>fireworkPalette</title>
<path fill="#ffb347" stroke="black" d="M902.5,-782.63C902.5,-782.63 819.5,-782.63 819.5,-782.63 813.5,-782.63 807.5,-776.63 807.5,-770.63 807.5,-770.63 807.5,-758.63 807.5,-758.63 807.5,-752.63 813.5,-746.63 819.5,-746.63 819.5,-746.63 902.5,-746.63 902.5,-746.63 908.5,-746.63 914.5,-752.63 914.5,-758.63 914.5,-758.63 914.5,-770.63 914.5,-770.63 914.5,-776.63 908.5,-782.63 902.5,-782.63"/>
<text text-anchor="middle" x="861" y="-767.83" font-family="Arial" font-size="11.00">Firework Type</text>
<text text-anchor="middle" x="861" y="-755.83" font-family="Arial" font-size="11.00">Selector (12 types)</text>
</g>
<!-- fireworkTypes -->
<g id="node21" class="node">
<title>fireworkTypes</title>
<path fill="#dda0dd" stroke="black" d="M1505.5,-543.63C1505.5,-543.63 1410.5,-543.63 1410.5,-543.63 1404.5,-543.63 1398.5,-537.63 1398.5,-531.63 1398.5,-531.63 1398.5,-519.63 1398.5,-519.63 1398.5,-513.63 1404.5,-507.63 1410.5,-507.63 1410.5,-507.63 1505.5,-507.63 1505.5,-507.63 1511.5,-507.63 1517.5,-513.63 1517.5,-519.63 1517.5,-519.63 1517.5,-531.63 1517.5,-531.63 1517.5,-537.63 1511.5,-543.63 1505.5,-543.63"/>
<text text-anchor="middle" x="1458" y="-528.83" font-family="Arial" font-size="11.00">FIREWORK_TYPES</text>
<text text-anchor="middle" x="1458" y="-516.83" font-family="Arial" font-size="11.00">Object (12 configs)</text>
</g>
<!-- fireworkPalette&#45;&gt;fireworkTypes -->
<g id="edge18" class="edge">
<title>fireworkPalette&#45;&gt;fireworkTypes</title>
<path fill="none" stroke="black" d="M875.75,-746.6C888.69,-732.73 908.72,-713.68 930,-702.63 1108.41,-609.95 1189.55,-686.26 1370,-597.63 1393.92,-585.88 1417.23,-566.62 1433.84,-551.12"/>
<polygon fill="black" stroke="black" points="1436.62,-553.3 1441.42,-543.86 1431.78,-548.24 1436.62,-553.3"/>
<text text-anchor="middle" x="1139.5" y="-652.43" font-family="Arial" font-size="9.00">select</text>
</g>
<!-- colorPicker -->
<g id="node17" class="node">
<title>colorPicker</title>
<path fill="#ffb347" stroke="black" d="M905.5,-543.63C905.5,-543.63 828.5,-543.63 828.5,-543.63 822.5,-543.63 816.5,-537.63 816.5,-531.63 816.5,-531.63 816.5,-519.63 816.5,-519.63 816.5,-513.63 822.5,-507.63 828.5,-507.63 828.5,-507.63 905.5,-507.63 905.5,-507.63 911.5,-507.63 917.5,-513.63 917.5,-519.63 917.5,-519.63 917.5,-531.63 917.5,-531.63 917.5,-537.63 911.5,-543.63 905.5,-543.63"/>
<text text-anchor="middle" x="867" y="-528.83" font-family="Arial" font-size="11.00">Color</text>
<text text-anchor="middle" x="867" y="-516.83" font-family="Arial" font-size="11.00">Picker (10 colors)</text>
</g>
<!-- colorPicker&#45;&gt;rocket -->
<g id="edge19" class="edge">
<title>colorPicker&#45;&gt;rocket</title>
<path fill="none" stroke="black" d="M869.28,-507.62C870.36,-493.85 870.14,-474.31 863,-459 858.17,-448.64 746.5,-345.76 694.36,-298.06"/>
<polygon fill="black" stroke="black" points="696.57,-295.33 686.83,-291.17 691.85,-300.5 696.57,-295.33"/>
<text text-anchor="middle" x="831.5" y="-408.8" font-family="Arial" font-size="9.00">color</text>
</g>
<!-- playbackCtrl -->
<g id="node18" class="node">
<title>playbackCtrl</title>
<path fill="#ffb347" stroke="black" d="M136,-543.63C136,-543.63 100,-543.63 100,-543.63 94,-543.63 88,-537.63 88,-531.63 88,-531.63 88,-519.63 88,-519.63 88,-513.63 94,-507.63 100,-507.63 100,-507.63 136,-507.63 136,-507.63 142,-507.63 148,-513.63 148,-519.63 148,-519.63 148,-531.63 148,-531.63 148,-537.63 142,-543.63 136,-543.63"/>
<text text-anchor="middle" x="118" y="-528.83" font-family="Arial" font-size="11.00">Playback</text>
<text text-anchor="middle" x="118" y="-516.83" font-family="Arial" font-size="11.00">Controls</text>
</g>
<!-- playbackCtrl&#45;&gt;timeline -->
<g id="edge20" class="edge">
<title>playbackCtrl&#45;&gt;timeline</title>
<path fill="none" stroke="black" d="M148.21,-525.63C201.34,-525.63 311.37,-525.63 369.73,-525.63"/>
<polygon fill="black" stroke="black" points="370,-529.13 380,-525.63 370,-522.13 370,-529.13"/>
<text text-anchor="middle" x="264" y="-531.43" font-family="Arial" font-size="9.00">play/stop</text>
</g>
<!-- presetBtns -->
<g id="node19" class="node">
<title>presetBtns</title>
<path fill="#ffb347" stroke="black" d="M1157.5,-543.63C1157.5,-543.63 1102.5,-543.63 1102.5,-543.63 1096.5,-543.63 1090.5,-537.63 1090.5,-531.63 1090.5,-531.63 1090.5,-519.63 1090.5,-519.63 1090.5,-513.63 1096.5,-507.63 1102.5,-507.63 1102.5,-507.63 1157.5,-507.63 1157.5,-507.63 1163.5,-507.63 1169.5,-513.63 1169.5,-519.63 1169.5,-519.63 1169.5,-531.63 1169.5,-531.63 1169.5,-537.63 1163.5,-543.63 1157.5,-543.63"/>
<text text-anchor="middle" x="1130" y="-528.83" font-family="Arial" font-size="11.00">Preset Show</text>
<text text-anchor="middle" x="1130" y="-516.83" font-family="Arial" font-size="11.00">Buttons (4)</text>
</g>
<!-- presets -->
<g id="node22" class="node">
<title>presets</title>
<path fill="#dda0dd" stroke="black" d="M1263,-291C1263,-291 1177,-291 1177,-291 1171,-291 1165,-285 1165,-279 1165,-279 1165,-267 1165,-267 1165,-261 1171,-255 1177,-255 1177,-255 1263,-255 1263,-255 1269,-255 1275,-261 1275,-267 1275,-267 1275,-279 1275,-279 1275,-285 1269,-291 1263,-291"/>
<text text-anchor="middle" x="1220" y="-276.2" font-family="Arial" font-size="11.00">PRESET_SHOWS</text>
<text text-anchor="middle" x="1220" y="-264.2" font-family="Arial" font-size="11.00">(4 choreographies)</text>
</g>
<!-- presetBtns&#45;&gt;presets -->
<g id="edge22" class="edge">
<title>presetBtns&#45;&gt;presets</title>
<path fill="none" stroke="black" d="M1136.19,-507.4C1151.64,-464.37 1192,-351.97 1210.5,-300.47"/>
<polygon fill="black" stroke="black" points="1213.8,-301.61 1213.89,-291.02 1207.22,-299.24 1213.8,-301.61"/>
<text text-anchor="middle" x="1181.5" y="-408.8" font-family="Arial" font-size="9.00">load</text>
</g>
<!-- timelineUI -->
<g id="node20" class="node">
<title>timelineUI</title>
<path fill="#ffb347" stroke="black" d="M1020,-543.63C1020,-543.63 988,-543.63 988,-543.63 982,-543.63 976,-537.63 976,-531.63 976,-531.63 976,-519.63 976,-519.63 976,-513.63 982,-507.63 988,-507.63 988,-507.63 1020,-507.63 1020,-507.63 1026,-507.63 1032,-513.63 1032,-519.63 1032,-519.63 1032,-531.63 1032,-531.63 1032,-537.63 1026,-543.63 1020,-543.63"/>
<text text-anchor="middle" x="1004" y="-528.83" font-family="Arial" font-size="11.00">Timeline</text>
<text text-anchor="middle" x="1004" y="-516.83" font-family="Arial" font-size="11.00">Editor</text>
</g>
<!-- timelineEvents -->
<g id="node23" class="node">
<title>timelineEvents</title>
<path fill="#dda0dd" stroke="black" d="M1178,-52C1178,-52 1116,-52 1116,-52 1110,-52 1104,-46 1104,-40 1104,-40 1104,-28 1104,-28 1104,-22 1110,-16 1116,-16 1116,-16 1178,-16 1178,-16 1184,-16 1190,-22 1190,-28 1190,-28 1190,-40 1190,-40 1190,-46 1184,-52 1178,-52"/>
<text text-anchor="middle" x="1147" y="-37.2" font-family="Arial" font-size="11.00">timelineEvents</text>
<text text-anchor="middle" x="1147" y="-25.2" font-family="Arial" font-size="11.00">Array</text>
</g>
<!-- timelineUI&#45;&gt;timelineEvents -->
<g id="edge21" class="edge">
<title>timelineUI&#45;&gt;timelineEvents</title>
<path fill="none" stroke="black" d="M1023.13,-507.56C1043.85,-487.1 1074,-450.68 1074,-412 1074,-412 1074,-412 1074,-162 1074,-122.24 1101.22,-83.68 1122.42,-59.68"/>
<polygon fill="black" stroke="black" points="1125.17,-61.87 1129.33,-52.12 1120,-57.14 1125.17,-61.87"/>
<text text-anchor="middle" x="1082" y="-270.8" font-family="Arial" font-size="9.00">edit</text>
</g>
<!-- fireworkTypes&#45;&gt;particle -->
<g id="edge27" class="edge">
<title>fireworkTypes&#45;&gt;particle</title>
<path fill="none" stroke="black" d="M1451.26,-507.4C1434.44,-464.37 1390.49,-351.97 1370.35,-300.47"/>
<polygon fill="black" stroke="black" points="1373.55,-299.05 1366.65,-291.02 1367.04,-301.6 1373.55,-299.05"/>
<text text-anchor="middle" x="1444" y="-408.8" font-family="Arial" font-size="9.00">physics config</text>
</g>
<!-- presets&#45;&gt;timelineEvents -->
<g id="edge23" class="edge">
<title>presets&#45;&gt;timelineEvents</title>
<path fill="none" stroke="black" d="M1214.75,-254.96C1202.21,-214.23 1170.41,-111.01 1155.27,-61.84"/>
<polygon fill="black" stroke="black" points="1158.59,-60.74 1152.3,-52.21 1151.9,-62.8 1158.59,-60.74"/>
<text text-anchor="middle" x="1205.5" y="-160.8" font-family="Arial" font-size="9.00">populate</text>
</g>
<!-- rocket&#45;&gt;audio -->
<g id="edge26" class="edge">
<title>rocket&#45;&gt;audio</title>
<path fill="none" stroke="black" d="M668,-254.96C668,-214.4 668,-111.87 668,-62.46"/>
<polygon fill="black" stroke="black" points="671.5,-62.21 668,-52.21 664.5,-62.21 671.5,-62.21"/>
<text text-anchor="middle" x="695.5" y="-160.8" font-family="Arial" font-size="9.00">playLaunch()</text>
</g>
<!-- rocket&#45;&gt;particle -->
<g id="edge25" class="edge">
<title>rocket&#45;&gt;particle</title>
<path fill="none" stroke="black" d="M682.02,-291.15C696.28,-307.98 720.06,-331.89 747,-342 804.22,-363.47 1241.09,-366.66 1297,-342 1316.79,-333.27 1333.05,-314.92 1344.09,-299.34"/>
<polygon fill="black" stroke="black" points="1347,-301.3 1349.68,-291.05 1341.19,-297.38 1347,-301.3"/>
<text text-anchor="middle" x="1147" y="-355.8" font-family="Arial" font-size="9.00">trail</text>
</g>
<!-- canvas_click -->
<g id="node26" class="node">
<title>canvas_click</title>
<ellipse fill="#e8e8e8" stroke="black" cx="702" cy="-525.63" rx="56.64" ry="22.76"/>
<text text-anchor="middle" x="702" y="-528.83" font-family="Arial" font-size="11.00">Canvas Click</text>
<text text-anchor="middle" x="702" y="-516.83" font-family="Arial" font-size="11.00">Event</text>
</g>
<!-- canvas_click&#45;&gt;audio -->
<g id="edge29" class="edge">
<title>canvas_click&#45;&gt;audio</title>
<path fill="none" stroke="black" d="M738.7,-508.19C773.01,-490.03 819,-457.25 819,-412 819,-412 819,-412 819,-162 819,-104.4 753.84,-67.67 709.13,-49.25"/>
<polygon fill="black" stroke="black" points="710.24,-45.92 699.65,-45.49 707.66,-52.43 710.24,-45.92"/>
<text text-anchor="middle" x="837.5" y="-270.8" font-family="Arial" font-size="9.00">resume()</text>
</g>
<!-- canvas_click&#45;&gt;rocket -->
<g id="edge28" class="edge">
<title>canvas_click&#45;&gt;rocket</title>
<path fill="none" stroke="black" d="M699.04,-502.82C692.84,-457.11 678.49,-351.34 671.7,-301.24"/>
<polygon fill="black" stroke="black" points="675.14,-300.6 670.33,-291.16 668.2,-301.54 675.14,-300.6"/>
<text text-anchor="middle" x="723" y="-408.8" font-family="Arial" font-size="9.00">launchFirework()</text>
</g>
</g>
</svg>
