<?xml version="1.0" encoding="UTF-8" standalone="no"?>
<!DOCTYPE svg PUBLIC "-//W3C//DTD SVG 1.1//EN"
 "http://www.w3.org/Graphics/SVG/1.1/DTD/svg11.dtd">
<!-- Generated by graphviz version 2.43.0 (0)
 -->
<!-- Title: AudioSystem Pages: 1 -->
<svg width="1086pt" height="518pt"
 viewBox="0.00 0.00 1086.00 518.00" xmlns="http://www.w3.org/2000/svg" xmlns:xlink="http://www.w3.org/1999/xlink">
<g id="graph0" class="graph" transform="scale(1 1) rotate(0) translate(4 514)">
<title>AudioSystem</title>
<polygon fill="white" stroke="transparent" points="-4,4 -4,-514 1082,-514 1082,4 -4,4"/>
<text text-anchor="middle" x="539" y="-493.2" font-family="Arial Bold" font-size="16.00">8&#45;Bit Audio System</text>
<g id="clust1" class="cluster">
<title>cluster_context</title>
<polygon fill="#e8f4f8" stroke="black" points="815,-186 815,-328 964,-328 964,-186 815,-186"/>
<text text-anchor="middle" x="889.5" y="-311.2" font-family="Arial Bold" font-size="16.00">Web Audio API</text>
</g>
<g id="clust2" class="cluster">
<title>cluster_class</title>
<polygon fill="#fff8dc" stroke="black" points="146,-123 146,-425 291,-425 291,-123 146,-123"/>
<text text-anchor="middle" x="218.5" y="-408.2" font-family="Arial Bold" font-size="16.00">Audio8Bit Class</text>
</g>
<g id="clust3" class="cluster">
<title>cluster_launch</title>
<polygon fill="#f0fff0" stroke="black" points="334,-296 334,-382 781.5,-382 781.5,-296 334,-296"/>
<text text-anchor="middle" x="557.75" y="-365.2" font-family="Arial Bold" font-size="16.00">Launch Sound</text>
</g>
<g id="clust4" class="cluster">
<title>cluster_explosion</title>
<polygon fill="#fff0f5" stroke="black" points="312,-390 312,-476 1070,-476 1070,-390 312,-390"/>
<text text-anchor="middle" x="691" y="-459.2" font-family="Arial Bold" font-size="16.00">Explosion Sound</text>
</g>
<g id="clust5" class="cluster">
<title>cluster_crackle</title>
<polygon fill="#fffaf0" stroke="black" points="334,-164 334,-250 778.5,-250 778.5,-164 334,-164"/>
<text text-anchor="middle" x="556.25" y="-233.2" font-family="Arial Bold" font-size="16.00">Crackle Sound</text>
</g>
<g id="clust6" class="cluster">
<title>cluster_magic</title>
<polygon fill="#e6e6fa" stroke="black" points="333,-8 333,-156 646.5,-156 646.5,-8 333,-8"/>
<text text-anchor="middle" x="489.75" y="-139.2" font-family="Arial Bold" font-size="16.00">Magic Sound (Gandalf)</text>
</g>
<g id="clust7" class="cluster">
<title>cluster_triggers</title>
<polygon fill="none" stroke="gray" stroke-dasharray="5,2" points="8,-185 8,-425 125,-425 125,-185 8,-185"/>
<text text-anchor="middle" x="66.5" y="-408.2" font-family="Arial Bold" font-size="16.00">Triggers</text>
</g>
<!-- audioCtx -->
<g id="node1" class="node">
<title>audioCtx</title>
<path fill="#4a90d9" stroke="black" d="M944,-294C944,-294 835,-294 835,-294 829,-294 823,-288 823,-282 823,-282 823,-270 823,-270 823,-264 829,-258 835,-258 835,-258 944,-258 944,-258 950,-258 956,-264 956,-270 956,-270 956,-282 956,-282 956,-288 950,-294 944,-294"/>
<text text-anchor="middle" x="889.5" y="-279.2" font-family="Arial" font-size="11.00" fill="white">AudioContext</text>
<text text-anchor="middle" x="889.5" y="-267.2" font-family="Arial" font-size="11.00" fill="white">(or webkitAudioContext)</text>
</g>
<!-- resume_method -->
<g id="node3" class="node">
<title>resume_method</title>
<path fill="#ffb347" stroke="black" d="M259,-283C259,-283 178,-283 178,-283 172,-283 166,-277 166,-271 166,-271 166,-251 166,-251 166,-245 172,-239 178,-239 178,-239 259,-239 259,-239 265,-239 271,-245 271,-251 271,-251 271,-271 271,-271 271,-277 265,-283 259,-283"/>
<text text-anchor="middle" x="218.5" y="-270.2" font-family="Arial" font-size="11.00">resume()</text>
<text text-anchor="middle" x="218.5" y="-258.2" font-family="Arial" font-size="11.00">Unlock suspended</text>
<text text-anchor="middle" x="218.5" y="-246.2" font-family="Arial" font-size="11.00">audio context</text>
</g>
<!-- audioCtx&#45;&gt;resume_method -->
<g id="edge1" class="edge">
<title>audioCtx&#45;&gt;resume_method</title>
<path fill="none" stroke="black" d="M822.66,-276C795.92,-276 764.74,-276 736.5,-276 384.5,-276 384.5,-276 384.5,-276 350.26,-276 312.18,-272.76 281.24,-269.29"/>
<polygon fill="black" stroke="black" points="281.38,-265.78 271.04,-268.1 280.57,-272.73 281.38,-265.78"/>
<text text-anchor="middle" x="592" y="-278.8" font-family="Arial" font-size="9.00">state check</text>
</g>
<!-- destination -->
<g id="node2" class="node">
<title>destination</title>
<ellipse fill="#4a90d9" stroke="black" cx="889.5" cy="-217" rx="60.21" ry="22.76"/>
<text text-anchor="middle" x="889.5" y="-220.2" font-family="Arial" font-size="11.00" fill="white">ctx.destination</text>
<text text-anchor="middle" x="889.5" y="-208.2" font-family="Arial" font-size="11.00" fill="white">(speakers)</text>
</g>
<!-- playLaunch -->
<g id="node4" class="node">
<title>playLaunch</title>
<path fill="#50c878" stroke="black" d="M257.5,-337C257.5,-337 179.5,-337 179.5,-337 173.5,-337 167.5,-331 167.5,-325 167.5,-325 167.5,-313 167.5,-313 167.5,-307 173.5,-301 179.5,-301 179.5,-301 257.5,-301 257.5,-301 263.5,-301 269.5,-307 269.5,-313 269.5,-313 269.5,-325 269.5,-325 269.5,-331 263.5,-337 257.5,-337"/>
<text text-anchor="middle" x="218.5" y="-322.2" font-family="Arial" font-size="11.00" fill="white">playLaunch()</text>
<text text-anchor="middle" x="218.5" y="-310.2" font-family="Arial" font-size="11.00" fill="white">Rocket ascending</text>
</g>
<!-- launch_osc -->
<g id="node8" class="node">
<title>launch_osc</title>
<path fill="#87ceeb" stroke="black" d="M417,-340C417,-340 354,-340 354,-340 348,-340 342,-334 342,-328 342,-328 342,-316 342,-316 342,-310 348,-304 354,-304 354,-304 417,-304 417,-304 423,-304 429,-310 429,-316 429,-316 429,-328 429,-328 429,-334 423,-340 417,-340"/>
<text text-anchor="middle" x="385.5" y="-325.2" font-family="Arial" font-size="11.00">OscillatorNode</text>
<text text-anchor="middle" x="385.5" y="-313.2" font-family="Arial" font-size="11.00">type: &#39;square&#39;</text>
</g>
<!-- playLaunch&#45;&gt;launch_osc -->
<g id="edge2" class="edge">
<title>playLaunch&#45;&gt;launch_osc</title>
<path fill="none" stroke="black" d="M269.9,-319.92C289.51,-320.27 311.99,-320.68 331.82,-321.04"/>
<polygon fill="black" stroke="black" points="331.85,-324.54 341.91,-321.23 331.98,-317.54 331.85,-324.54"/>
</g>
<!-- playExplosion -->
<g id="node5" class="node">
<title>playExplosion</title>
<path fill="#ff6b6b" stroke="black" d="M271,-391C271,-391 166,-391 166,-391 160,-391 154,-385 154,-379 154,-379 154,-367 154,-367 154,-361 160,-355 166,-355 166,-355 271,-355 271,-355 277,-355 283,-361 283,-367 283,-367 283,-379 283,-379 283,-385 277,-391 271,-391"/>
<text text-anchor="middle" x="218.5" y="-376.2" font-family="Arial" font-size="11.00" fill="white">playExplosion(intensity)</text>
<text text-anchor="middle" x="218.5" y="-364.2" font-family="Arial" font-size="11.00" fill="white">Main burst</text>
</g>
<!-- exp_buffer -->
<g id="node11" class="node">
<title>exp_buffer</title>
<path fill="#ffb6c1" stroke="black" d="M439,-436C439,-436 332,-436 332,-436 326,-436 320,-430 320,-424 320,-424 320,-412 320,-412 320,-406 326,-400 332,-400 332,-400 439,-400 439,-400 445,-400 451,-406 451,-412 451,-412 451,-424 451,-424 451,-430 445,-436 439,-436"/>
<text text-anchor="middle" x="385.5" y="-421.2" font-family="Arial" font-size="11.00">AudioBuffer</text>
<text text-anchor="middle" x="385.5" y="-409.2" font-family="Arial" font-size="11.00">(400ms @ sampleRate)</text>
</g>
<!-- playExplosion&#45;&gt;exp_buffer -->
<g id="edge6" class="edge">
<title>playExplosion&#45;&gt;exp_buffer</title>
<path fill="none" stroke="black" d="M283.29,-390.4C292.08,-392.8 301.17,-395.27 310.13,-397.72"/>
<polygon fill="black" stroke="black" points="309.22,-401.1 319.79,-400.35 311.06,-394.34 309.22,-401.1"/>
</g>
<!-- playCrackle -->
<g id="node6" class="node">
<title>playCrackle</title>
<path fill="#dda0dd" stroke="black" d="M254,-221C254,-221 183,-221 183,-221 177,-221 171,-215 171,-209 171,-209 171,-197 171,-197 171,-191 177,-185 183,-185 183,-185 254,-185 254,-185 260,-185 266,-191 266,-197 266,-197 266,-209 266,-209 266,-215 260,-221 254,-221"/>
<text text-anchor="middle" x="218.5" y="-206.2" font-family="Arial" font-size="11.00">playCrackle()</text>
<text text-anchor="middle" x="218.5" y="-194.2" font-family="Arial" font-size="11.00">Secondary pops</text>
</g>
<!-- crackle_osc -->
<g id="node16" class="node">
<title>crackle_osc</title>
<path fill="#ffdab9" stroke="black" d="M417,-215C417,-215 354,-215 354,-215 348,-215 342,-209 342,-203 342,-203 342,-191 342,-191 342,-185 348,-179 354,-179 354,-179 417,-179 417,-179 423,-179 429,-185 429,-191 429,-191 429,-203 429,-203 429,-209 423,-215 417,-215"/>
<text text-anchor="middle" x="385.5" y="-200.2" font-family="Arial" font-size="11.00">OscillatorNode</text>
<text text-anchor="middle" x="385.5" y="-188.2" font-family="Arial" font-size="11.00">type: &#39;square&#39;</text>
</g>
<!-- playCrackle&#45;&gt;crackle_osc -->
<g id="edge12" class="edge">
<title>playCrackle&#45;&gt;crackle_osc</title>
<path fill="none" stroke="black" d="M266.34,-201.3C286.73,-200.56 310.71,-199.68 331.73,-198.92"/>
<polygon fill="black" stroke="black" points="331.91,-202.41 341.78,-198.55 331.66,-195.42 331.91,-202.41"/>
</g>
<!-- playMagic -->
<g id="node7" class="node">
<title>playMagic</title>
<path fill="#9370db" stroke="black" d="M251.5,-167C251.5,-167 185.5,-167 185.5,-167 179.5,-167 173.5,-161 173.5,-155 173.5,-155 173.5,-143 173.5,-143 173.5,-137 179.5,-131 185.5,-131 185.5,-131 251.5,-131 251.5,-131 257.5,-131 263.5,-137 263.5,-143 263.5,-143 263.5,-155 263.5,-155 263.5,-161 257.5,-167 251.5,-167"/>
<text text-anchor="middle" x="218.5" y="-152.2" font-family="Arial" font-size="11.00" fill="white">playMagic()</text>
<text text-anchor="middle" x="218.5" y="-140.2" font-family="Arial" font-size="11.00" fill="white">Gandalf special</text>
</g>
<!-- magic_osc1 -->
<g id="node19" class="node">
<title>magic_osc1</title>
<path fill="#9370db" stroke="black" d="M418,-60C418,-60 353,-60 353,-60 347,-60 341,-54 341,-48 341,-48 341,-28 341,-28 341,-22 347,-16 353,-16 353,-16 418,-16 418,-16 424,-16 430,-22 430,-28 430,-28 430,-48 430,-48 430,-54 424,-60 418,-60"/>
<text text-anchor="middle" x="385.5" y="-47.2" font-family="Arial" font-size="11.00" fill="white">OscillatorNode</text>
<text text-anchor="middle" x="385.5" y="-35.2" font-family="Arial" font-size="11.00" fill="white">type: &#39;sine&#39;</text>
<text text-anchor="middle" x="385.5" y="-23.2" font-family="Arial" font-size="11.00" fill="white">600 → 1200Hz</text>
</g>
<!-- playMagic&#45;&gt;magic_osc1 -->
<g id="edge16" class="edge">
<title>playMagic&#45;&gt;magic_osc1</title>
<path fill="none" stroke="black" d="M236.95,-130.95C254.62,-113.42 283.37,-86.89 312,-69 318.15,-65.16 324.85,-61.58 331.62,-58.32"/>
<polygon fill="black" stroke="black" points="333.22,-61.44 340.84,-54.08 330.29,-55.08 333.22,-61.44"/>
</g>
<!-- magic_osc2 -->
<g id="node20" class="node">
<title>magic_osc2</title>
<path fill="#9370db" stroke="black" d="M418,-122C418,-122 353,-122 353,-122 347,-122 341,-116 341,-110 341,-110 341,-90 341,-90 341,-84 347,-78 353,-78 353,-78 418,-78 418,-78 424,-78 430,-84 430,-90 430,-90 430,-110 430,-110 430,-116 424,-122 418,-122"/>
<text text-anchor="middle" x="385.5" y="-109.2" font-family="Arial" font-size="11.00" fill="white">OscillatorNode</text>
<text text-anchor="middle" x="385.5" y="-97.2" font-family="Arial" font-size="11.00" fill="white">type: &#39;triangle&#39;</text>
<text text-anchor="middle" x="385.5" y="-85.2" font-family="Arial" font-size="11.00" fill="white">603 → 1206Hz</text>
</g>
<!-- playMagic&#45;&gt;magic_osc2 -->
<g id="edge17" class="edge">
<title>playMagic&#45;&gt;magic_osc2</title>
<path fill="none" stroke="black" d="M263.72,-135.87C284.41,-129.72 309.24,-122.35 330.98,-115.89"/>
<polygon fill="black" stroke="black" points="332.14,-119.2 340.73,-113 330.15,-112.49 332.14,-119.2"/>
</g>
<!-- launch_freq -->
<g id="node9" class="node">
<title>launch_freq</title>
<path fill="#98fb98" stroke="black" d="M633.5,-348C633.5,-348 550.5,-348 550.5,-348 544.5,-348 538.5,-342 538.5,-336 538.5,-336 538.5,-316 538.5,-316 538.5,-310 544.5,-304 550.5,-304 550.5,-304 633.5,-304 633.5,-304 639.5,-304 645.5,-310 645.5,-316 645.5,-316 645.5,-336 645.5,-336 645.5,-342 639.5,-348 633.5,-348"/>
<text text-anchor="middle" x="592" y="-335.2" font-family="Arial" font-size="11.00">Frequency</text>
<text text-anchor="middle" x="592" y="-323.2" font-family="Arial" font-size="11.00">150Hz → 800Hz</text>
<text text-anchor="middle" x="592" y="-311.2" font-family="Arial" font-size="11.00">(exponential ramp)</text>
</g>
<!-- launch_osc&#45;&gt;launch_freq -->
<g id="edge3" class="edge">
<title>launch_osc&#45;&gt;launch_freq</title>
<path fill="none" stroke="black" d="M429.37,-322.84C458.01,-323.4 496.16,-324.14 528.21,-324.77"/>
<polygon fill="black" stroke="black" points="528.31,-328.27 538.38,-324.97 528.45,-321.28 528.31,-328.27"/>
</g>
<!-- launch_gain -->
<g id="node10" class="node">
<title>launch_gain</title>
<path fill="#87ceeb" stroke="black" d="M761.5,-348C761.5,-348 709.5,-348 709.5,-348 703.5,-348 697.5,-342 697.5,-336 697.5,-336 697.5,-316 697.5,-316 697.5,-310 703.5,-304 709.5,-304 709.5,-304 761.5,-304 761.5,-304 767.5,-304 773.5,-310 773.5,-316 773.5,-316 773.5,-336 773.5,-336 773.5,-342 767.5,-348 761.5,-348"/>
<text text-anchor="middle" x="735.5" y="-335.2" font-family="Arial" font-size="11.00">GainNode</text>
<text text-anchor="middle" x="735.5" y="-323.2" font-family="Arial" font-size="11.00">0.15 → 0.01</text>
<text text-anchor="middle" x="735.5" y="-311.2" font-family="Arial" font-size="11.00">(300ms)</text>
</g>
<!-- launch_freq&#45;&gt;launch_gain -->
<g id="edge4" class="edge">
<title>launch_freq&#45;&gt;launch_gain</title>
<path fill="none" stroke="black" d="M645.69,-326C659.21,-326 673.66,-326 686.91,-326"/>
<polygon fill="black" stroke="black" points="687.22,-329.5 697.22,-326 687.22,-322.5 687.22,-329.5"/>
</g>
<!-- launch_gain&#45;&gt;destination -->
<g id="edge5" class="edge">
<title>launch_gain&#45;&gt;destination</title>
<path fill="none" stroke="black" d="M755.03,-303.85C769.91,-287.12 792.05,-264.47 815,-249 821.57,-244.57 828.86,-240.53 836.21,-236.92"/>
<polygon fill="black" stroke="black" points="837.94,-239.98 845.52,-232.58 834.98,-233.63 837.94,-239.98"/>
</g>
<!-- exp_noise -->
<g id="node12" class="node">
<title>exp_noise</title>
<path fill="#ffb6c1" stroke="black" d="M634.5,-442C634.5,-442 549.5,-442 549.5,-442 543.5,-442 537.5,-436 537.5,-430 537.5,-430 537.5,-410 537.5,-410 537.5,-404 543.5,-398 549.5,-398 549.5,-398 634.5,-398 634.5,-398 640.5,-398 646.5,-404 646.5,-410 646.5,-410 646.5,-430 646.5,-430 646.5,-436 640.5,-442 634.5,-442"/>
<text text-anchor="middle" x="592" y="-429.2" font-family="Arial" font-size="11.00">8&#45;bit Noise Gen:</text>
<text text-anchor="middle" x="592" y="-417.2" font-family="Arial" font-size="11.00">quantized = </text>
<text text-anchor="middle" x="592" y="-405.2" font-family="Arial" font-size="11.00">round(noise * 8) / 8</text>
</g>
<!-- exp_buffer&#45;&gt;exp_noise -->
<g id="edge7" class="edge">
<title>exp_buffer&#45;&gt;exp_noise</title>
<path fill="none" stroke="black" d="M451.21,-418.63C475.47,-418.87 503.01,-419.14 527.2,-419.38"/>
<polygon fill="black" stroke="black" points="527.3,-422.88 537.34,-419.48 527.37,-415.88 527.3,-422.88"/>
</g>
<!-- exp_decay -->
<g id="node13" class="node">
<title>exp_decay</title>
<path fill="#ffb6c1" stroke="black" d="M774,-442C774,-442 697,-442 697,-442 691,-442 685,-436 685,-430 685,-430 685,-410 685,-410 685,-404 691,-398 697,-398 697,-398 774,-398 774,-398 780,-398 786,-404 786,-410 786,-410 786,-430 786,-430 786,-436 780,-442 774,-442"/>
<text text-anchor="middle" x="735.5" y="-429.2" font-family="Arial" font-size="11.00">Amplitude Decay:</text>
<text text-anchor="middle" x="735.5" y="-417.2" font-family="Arial" font-size="11.00">data[i] *= (1&#45;t)²</text>
<text text-anchor="middle" x="735.5" y="-405.2" font-family="Arial" font-size="11.00">× intensity</text>
</g>
<!-- exp_noise&#45;&gt;exp_decay -->
<g id="edge8" class="edge">
<title>exp_noise&#45;&gt;exp_decay</title>
<path fill="none" stroke="black" d="M646.9,-420C655.98,-420 665.45,-420 674.67,-420"/>
<polygon fill="black" stroke="black" points="674.94,-423.5 684.94,-420 674.94,-416.5 674.94,-423.5"/>
</g>
<!-- exp_source -->
<g id="node14" class="node">
<title>exp_source</title>
<path fill="#dda0dd" stroke="black" d="M931,-436C931,-436 848,-436 848,-436 842,-436 836,-430 836,-424 836,-424 836,-412 836,-412 836,-406 842,-400 848,-400 848,-400 931,-400 931,-400 937,-400 943,-406 943,-412 943,-412 943,-424 943,-424 943,-430 937,-436 931,-436"/>
<text text-anchor="middle" x="889.5" y="-415.2" font-family="Arial" font-size="11.00">BufferSourceNode</text>
</g>
<!-- exp_decay&#45;&gt;exp_source -->
<g id="edge9" class="edge">
<title>exp_decay&#45;&gt;exp_source</title>
<path fill="none" stroke="black" d="M786.27,-419.35C798.77,-419.18 812.35,-419 825.41,-418.83"/>
<polygon fill="black" stroke="black" points="825.79,-422.33 835.74,-418.69 825.7,-415.33 825.79,-422.33"/>
</g>
<!-- exp_gain -->
<g id="node15" class="node">
<title>exp_gain</title>
<path fill="#dda0dd" stroke="black" d="M1050,-435C1050,-435 1005,-435 1005,-435 999,-435 993,-429 993,-423 993,-423 993,-411 993,-411 993,-405 999,-399 1005,-399 1005,-399 1050,-399 1050,-399 1056,-399 1062,-405 1062,-411 1062,-411 1062,-423 1062,-423 1062,-429 1056,-435 1050,-435"/>
<text text-anchor="middle" x="1027.5" y="-420.2" font-family="Arial" font-size="11.00">GainNode</text>
<text text-anchor="middle" x="1027.5" y="-408.2" font-family="Arial" font-size="11.00">value: 0.25</text>
</g>
<!-- exp_source&#45;&gt;exp_gain -->
<g id="edge10" class="edge">
<title>exp_source&#45;&gt;exp_gain</title>
<path fill="none" stroke="black" d="M943.08,-417.61C956.16,-417.52 970.05,-417.42 982.66,-417.32"/>
<polygon fill="black" stroke="black" points="982.93,-420.82 992.9,-417.25 982.88,-413.82 982.93,-420.82"/>
</g>
<!-- exp_gain&#45;&gt;destination -->
<g id="edge11" class="edge">
<title>exp_gain&#45;&gt;destination</title>
<path fill="none" stroke="black" d="M1024.44,-398.88C1019.7,-365.19 1005.08,-292.38 964,-249 959,-243.72 952.98,-239.26 946.56,-235.51"/>
<polygon fill="black" stroke="black" points="948.11,-232.37 937.63,-230.82 944.86,-238.57 948.11,-232.37"/>
</g>
<!-- crackle_freq -->
<g id="node17" class="node">
<title>crackle_freq</title>
<path fill="#ffdab9" stroke="black" d="M636,-216C636,-216 548,-216 548,-216 542,-216 536,-210 536,-204 536,-204 536,-184 536,-184 536,-178 542,-172 548,-172 548,-172 636,-172 636,-172 642,-172 648,-178 648,-184 648,-184 648,-204 648,-204 648,-210 642,-216 636,-216"/>
<text text-anchor="middle" x="592" y="-203.2" font-family="Arial" font-size="11.00">Random Frequency</text>
<text text-anchor="middle" x="592" y="-191.2" font-family="Arial" font-size="11.00">800&#45;1200Hz</text>
<text text-anchor="middle" x="592" y="-179.2" font-family="Arial" font-size="11.00">(5 steps)</text>
</g>
<!-- crackle_osc&#45;&gt;crackle_freq -->
<g id="edge13" class="edge">
<title>crackle_osc&#45;&gt;crackle_freq</title>
<path fill="none" stroke="black" d="M429.37,-196.37C457.27,-195.96 494.2,-195.42 525.71,-194.96"/>
<polygon fill="black" stroke="black" points="525.79,-198.46 535.74,-194.81 525.68,-191.46 525.79,-198.46"/>
</g>
<!-- crackle_gain -->
<g id="node18" class="node">
<title>crackle_gain</title>
<path fill="#ffdab9" stroke="black" d="M758.5,-216C758.5,-216 712.5,-216 712.5,-216 706.5,-216 700.5,-210 700.5,-204 700.5,-204 700.5,-184 700.5,-184 700.5,-178 706.5,-172 712.5,-172 712.5,-172 758.5,-172 758.5,-172 764.5,-172 770.5,-178 770.5,-184 770.5,-184 770.5,-204 770.5,-204 770.5,-210 764.5,-216 758.5,-216"/>
<text text-anchor="middle" x="735.5" y="-203.2" font-family="Arial" font-size="11.00">GainNode</text>
<text text-anchor="middle" x="735.5" y="-191.2" font-family="Arial" font-size="11.00">0.1 → 0.01</text>
<text text-anchor="middle" x="735.5" y="-179.2" font-family="Arial" font-size="11.00">(250ms)</text>
</g>
<!-- crackle_freq&#45;&gt;crackle_gain -->
<g id="edge14" class="edge">
<title>crackle_freq&#45;&gt;crackle_gain</title>
<path fill="none" stroke="black" d="M648.11,-194C661.95,-194 676.63,-194 689.88,-194"/>
<polygon fill="black" stroke="black" points="690.17,-197.5 700.16,-194 690.16,-190.5 690.17,-197.5"/>
</g>
<!-- crackle_gain&#45;&gt;destination -->
<g id="edge15" class="edge">
<title>crackle_gain&#45;&gt;destination</title>
<path fill="none" stroke="black" d="M770.61,-199.16C786.19,-201.52 805.19,-204.39 823.35,-207.14"/>
<polygon fill="black" stroke="black" points="822.91,-210.62 833.32,-208.65 823.96,-203.69 822.91,-210.62"/>
</g>
<!-- magic_gain -->
<g id="node21" class="node">
<title>magic_gain</title>
<path fill="#9370db" stroke="black" d="M618,-64C618,-64 566,-64 566,-64 560,-64 554,-58 554,-52 554,-52 554,-32 554,-32 554,-26 560,-20 566,-20 566,-20 618,-20 618,-20 624,-20 630,-26 630,-32 630,-32 630,-52 630,-52 630,-58 624,-64 618,-64"/>
<text text-anchor="middle" x="592" y="-51.2" font-family="Arial" font-size="11.00" fill="white">GainNode</text>
<text text-anchor="middle" x="592" y="-39.2" font-family="Arial" font-size="11.00" fill="white">0.15 → 0.01</text>
<text text-anchor="middle" x="592" y="-27.2" font-family="Arial" font-size="11.00" fill="white">(600ms)</text>
</g>
<!-- magic_osc1&#45;&gt;magic_gain -->
<g id="edge18" class="edge">
<title>magic_osc1&#45;&gt;magic_gain</title>
<path fill="none" stroke="black" d="M430.12,-38.85C463.5,-39.51 509.47,-40.41 543.73,-41.08"/>
<polygon fill="black" stroke="black" points="543.89,-44.58 553.95,-41.28 544.02,-37.58 543.89,-44.58"/>
</g>
<!-- magic_beat -->
<g id="node22" class="node">
<title>magic_beat</title>
<polygon fill="#d8bfd8" stroke="black" points="632.5,-118 545.5,-118 545.5,-82 638.5,-82 638.5,-112 632.5,-118"/>
<polyline fill="none" stroke="black" points="632.5,-118 632.5,-112 "/>
<polyline fill="none" stroke="black" points="638.5,-112 632.5,-112 "/>
<text text-anchor="middle" x="592" y="-103.2" font-family="Arial" font-size="11.00">Beat Frequency</text>
<text text-anchor="middle" x="592" y="-91.2" font-family="Arial" font-size="11.00">3Hz shimmer</text>
</g>
<!-- magic_osc1&#45;&gt;magic_beat -->
<g id="edge21" class="edge">
<title>magic_osc1&#45;&gt;magic_beat</title>
<path fill="none" stroke="black" stroke-dasharray="5,2" d="M430.12,-51.22C460.84,-60.54 502.23,-73.09 535.33,-83.12"/>
<polygon fill="black" stroke="black" points="534.74,-86.6 545.32,-86.15 536.77,-79.9 534.74,-86.6"/>
<text text-anchor="middle" x="493.5" y="-78.8" font-family="Arial" font-size="9.00">interference</text>
</g>
<!-- magic_osc2&#45;&gt;magic_gain -->
<g id="edge19" class="edge">
<title>magic_osc2&#45;&gt;magic_gain</title>
<path fill="none" stroke="black" d="M430.04,-79.5C437.08,-76.07 444.27,-72.48 451,-69 459.13,-64.79 460.32,-61.9 469,-59 492.92,-51 520.69,-46.76 543.69,-44.52"/>
<polygon fill="black" stroke="black" points="544.24,-47.99 553.89,-43.62 543.62,-41.01 544.24,-47.99"/>
</g>
<!-- magic_osc2&#45;&gt;magic_beat -->
<g id="edge22" class="edge">
<title>magic_osc2&#45;&gt;magic_beat</title>
<path fill="none" stroke="black" stroke-dasharray="5,2" d="M430.12,-100C460.71,-100 501.87,-100 534.91,-100"/>
<polygon fill="black" stroke="black" points="535.32,-103.5 545.32,-100 535.32,-96.5 535.32,-103.5"/>
</g>
<!-- magic_gain&#45;&gt;destination -->
<g id="edge20" class="edge">
<title>magic_gain&#45;&gt;destination</title>
<path fill="none" stroke="black" d="M630.06,-62.71C636.07,-66.12 642.22,-69.64 648,-73 718.96,-114.23 800.79,-163.63 848.38,-192.54"/>
<polygon fill="black" stroke="black" points="846.78,-195.66 857.14,-197.87 850.41,-189.68 846.78,-195.66"/>
</g>
<!-- trigger_rocket -->
<g id="node23" class="node">
<title>trigger_rocket</title>
<path fill="#e8e8e8" stroke="black" d="M99,-337C99,-337 34,-337 34,-337 28,-337 22,-331 22,-325 22,-325 22,-313 22,-313 22,-307 28,-301 34,-301 34,-301 99,-301 99,-301 105,-301 111,-307 111,-313 111,-313 111,-325 111,-325 111,-331 105,-337 99,-337"/>
<text text-anchor="middle" x="66.5" y="-316.2" font-family="Arial" font-size="11.00">Rocket Launch</text>
</g>
<!-- trigger_rocket&#45;&gt;playLaunch -->
<g id="edge23" class="edge">
<title>trigger_rocket&#45;&gt;playLaunch</title>
<path fill="none" stroke="black" d="M111.29,-319C125.55,-319 141.65,-319 156.92,-319"/>
<polygon fill="black" stroke="black" points="157.32,-322.5 167.32,-319 157.32,-315.5 157.32,-322.5"/>
</g>
<!-- trigger_explosion -->
<g id="node24" class="node">
<title>trigger_explosion</title>
<path fill="#e8e8e8" stroke="black" d="M105,-391C105,-391 28,-391 28,-391 22,-391 16,-385 16,-379 16,-379 16,-367 16,-367 16,-361 22,-355 28,-355 28,-355 105,-355 105,-355 111,-355 117,-361 117,-367 117,-367 117,-379 117,-379 117,-385 111,-391 105,-391"/>
<text text-anchor="middle" x="66.5" y="-370.2" font-family="Arial" font-size="11.00">createExplosion()</text>
</g>
<!-- trigger_explosion&#45;&gt;playExplosion -->
<g id="edge24" class="edge">
<title>trigger_explosion&#45;&gt;playExplosion</title>
<path fill="none" stroke="black" d="M117.03,-373C125.59,-373 134.65,-373 143.68,-373"/>
<polygon fill="black" stroke="black" points="143.84,-376.5 153.84,-373 143.84,-369.5 143.84,-376.5"/>
</g>
<!-- trigger_secondary -->
<g id="node25" class="node">
<title>trigger_secondary</title>
<path fill="#e8e8e8" stroke="black" d="M88.5,-283C88.5,-283 44.5,-283 44.5,-283 38.5,-283 32.5,-277 32.5,-271 32.5,-271 32.5,-259 32.5,-259 32.5,-253 38.5,-247 44.5,-247 44.5,-247 88.5,-247 88.5,-247 94.5,-247 100.5,-253 100.5,-259 100.5,-259 100.5,-271 100.5,-271 100.5,-277 94.5,-283 88.5,-283"/>
<text text-anchor="middle" x="66.5" y="-268.2" font-family="Arial" font-size="11.00">Secondary</text>
<text text-anchor="middle" x="66.5" y="-256.2" font-family="Arial" font-size="11.00">Explosion</text>
</g>
<!-- trigger_secondary&#45;&gt;playCrackle -->
<g id="edge25" class="edge">
<title>trigger_secondary&#45;&gt;playCrackle</title>
<path fill="none" stroke="black" d="M100.55,-249.75C114.49,-243.45 130.96,-236.19 146,-230 150.99,-227.95 156.19,-225.87 161.42,-223.82"/>
<polygon fill="black" stroke="black" points="162.75,-227.06 170.81,-220.18 160.22,-220.53 162.75,-227.06"/>
</g>
<!-- trigger_gandalf -->
<g id="node26" class="node">
<title>trigger_gandalf</title>
<path fill="#e8e8e8" stroke="black" d="M94.5,-229C94.5,-229 38.5,-229 38.5,-229 32.5,-229 26.5,-223 26.5,-217 26.5,-217 26.5,-205 26.5,-205 26.5,-199 32.5,-193 38.5,-193 38.5,-193 94.5,-193 94.5,-193 100.5,-193 106.5,-199 106.5,-205 106.5,-205 106.5,-217 106.5,-217 106.5,-223 100.5,-229 94.5,-229"/>
<text text-anchor="middle" x="66.5" y="-214.2" font-family="Arial" font-size="11.00">Gandalf Type</text>
<text text-anchor="middle" x="66.5" y="-202.2" font-family="Arial" font-size="11.00">Firework</text>
</g>
<!-- trigger_gandalf&#45;&gt;playMagic -->
<g id="edge26" class="edge">
<title>trigger_gandalf&#45;&gt;playMagic</title>
<path fill="none" stroke="black" d="M106.84,-192.92C119.3,-187.34 133.17,-181.28 146,-176 151.8,-173.62 157.89,-171.19 163.97,-168.82"/>
<polygon fill="black" stroke="black" points="165.41,-172.02 173.48,-165.16 162.89,-165.49 165.41,-172.02"/>
</g>
<!-- browser_note -->
<g id="node27" class="node">
<title>browser_note</title>
<polygon fill="#fffacd" stroke="black" points="111,-175 16,-175 16,-137 117,-137 117,-169 111,-175"/>
<polyline fill="none" stroke="black" points="111,-175 111,-169 "/>
<polyline fill="none" stroke="black" points="117,-169 111,-169 "/>
<text text-anchor="middle" x="66.5" y="-163.8" font-family="Arial" font-size="9.00">Note: Audio requires</text>
<text text-anchor="middle" x="66.5" y="-153.8" font-family="Arial" font-size="9.00">user interaction first</text>
<text text-anchor="middle" x="66.5" y="-143.8" font-family="Arial" font-size="9.00">(click/touch event)</text>
</g>
<!-- browser_note&#45;&gt;resume_method -->
<g id="edge27" class="edge">
<title>browser_note&#45;&gt;resume_method</title>
<path fill="none" stroke="black" stroke-dasharray="1,5" d="M117.16,-174.44C119.97,-176.43 122.62,-178.61 125,-181 141.71,-197.8 129.28,-213.21 146,-230 149.26,-233.27 152.91,-236.22 156.81,-238.87"/>
<polygon fill="black" stroke="black" points="155.28,-242.04 165.65,-244.23 158.91,-236.05 155.28,-242.04"/>
</g>
</g>
</svg>
