<?xml version="1.0" encoding="UTF-8" standalone="no"?>
<!DOCTYPE svg PUBLIC "-//W3C//DTD SVG 1.1//EN"
 "http://www.w3.org/Graphics/SVG/1.1/DTD/svg11.dtd">
<!-- Generated by graphviz version 2.43.0 (0)
 -->
<!-- Title: TimelineSystem Pages: 1 -->
<svg width="1889pt" height="1034pt"
 viewBox="0.00 0.00 1889.49 1034.00" xmlns="http://www.w3.org/2000/svg" xmlns:xlink="http://www.w3.org/1999/xlink">
<g id="graph0" class="graph" transform="scale(1 1) rotate(0) translate(4 1030)">
<title>TimelineSystem</title>
<polygon fill="white" stroke="transparent" points="-4,4 -4,-1030 1885.49,-1030 1885.49,4 -4,4"/>
<text text-anchor="middle" x="940.74" y="-1009.2" font-family="Arial Bold" font-size="16.00">Timeline &amp; Sequencing System</text>
<g id="clust1" class="cluster">
<title>cluster_state</title>
<polygon fill="#e8f4f8" stroke="black" points="1470.49,-550 1470.49,-708 1688.49,-708 1688.49,-550 1470.49,-550"/>
<text text-anchor="middle" x="1579.49" y="-691.2" font-family="Arial Bold" font-size="16.00">Timeline State</text>
</g>
<g id="clust2" class="cluster">
<title>cluster_event</title>
<polygon fill="#fff8dc" stroke="black" points="109.49,-562 109.49,-696 261.49,-696 261.49,-562 109.49,-562"/>
<text text-anchor="middle" x="185.49" y="-679.2" font-family="Arial Bold" font-size="16.00">Timeline Event</text>
</g>
<g id="clust3" class="cluster">
<title>cluster_ui</title>
<polygon fill="#f0fff0" stroke="black" points="619.49,-460 619.49,-672 852.49,-672 852.49,-460 619.49,-460"/>
<text text-anchor="middle" x="735.99" y="-655.2" font-family="Arial Bold" font-size="16.00">Timeline UI Components</text>
</g>
<g id="clust4" class="cluster">
<title>cluster_controls</title>
<polygon fill="#fff0f5" stroke="black" points="823.49,-736 823.49,-814 1437.49,-814 1437.49,-736 823.49,-736"/>
<text text-anchor="middle" x="1130.49" y="-797.2" font-family="Arial Bold" font-size="16.00">Controls</text>
</g>
<g id="clust5" class="cluster">
<title>cluster_playback</title>
<polygon fill="#fffaf0" stroke="black" points="893.49,-8 893.49,-682 1330.49,-682 1330.49,-8 893.49,-8"/>
<text text-anchor="middle" x="1111.99" y="-665.2" font-family="Arial Bold" font-size="16.00">Playback Loop (updatePlayback)</text>
</g>
<g id="clust6" class="cluster">
<title>cluster_interaction</title>
<polygon fill="#e6e6fa" stroke="black" points="269.49,-574 269.49,-992 611.49,-992 611.49,-574 269.49,-574"/>
<text text-anchor="middle" x="440.49" y="-975.2" font-family="Arial Bold" font-size="16.00">User Interactions</text>
</g>
<g id="clust7" class="cluster">
<title>cluster_presets</title>
<polygon fill="#f5f5dc" stroke="black" points="1445.49,-736 1445.49,-814 1873.49,-814 1873.49,-736 1445.49,-736"/>
<text text-anchor="middle" x="1659.49" y="-797.2" font-family="Arial Bold" font-size="16.00">Preset Shows</text>
</g>
<!-- state_vars -->
<g id="node1" class="node">
<title>state_vars</title>
<polygon fill="#87ceeb" stroke="black" points="1674.99,-674 1477.99,-674 1477.99,-558 1680.99,-558 1680.99,-668 1674.99,-674"/>
<polyline fill="none" stroke="black" points="1674.99,-674 1674.99,-668 "/>
<polyline fill="none" stroke="black" points="1680.99,-668 1674.99,-668 "/>
<text text-anchor="middle" x="1579.49" y="-661.2" font-family="Arial" font-size="11.00">State Variables:</text>
<text text-anchor="middle" x="1579.49" y="-649.2" font-family="Arial" font-size="11.00">• timelineEvents[] &#45; scheduled launches</text>
<text text-anchor="middle" x="1579.49" y="-637.2" font-family="Arial" font-size="11.00">• isPlaying (boolean)</text>
<text text-anchor="middle" x="1579.49" y="-625.2" font-family="Arial" font-size="11.00">• isPaused (boolean)</text>
<text text-anchor="middle" x="1579.49" y="-613.2" font-family="Arial" font-size="11.00">• currentTime (seconds)</text>
<text text-anchor="middle" x="1579.49" y="-601.2" font-family="Arial" font-size="11.00">• duration (default 30s)</text>
<text text-anchor="middle" x="1579.49" y="-589.2" font-family="Arial" font-size="11.00">• pixelsPerSecond (zoom)</text>
<text text-anchor="middle" x="1579.49" y="-577.2" font-family="Arial" font-size="11.00">• isLooping (boolean)</text>
<text text-anchor="middle" x="1579.49" y="-565.2" font-family="Arial" font-size="11.00">• lastEventIndex (playback cursor)</text>
</g>
<!-- event_struct -->
<g id="node2" class="node">
<title>event_struct</title>
<polygon fill="#fffacd" stroke="black" points="247.49,-662 117.49,-662 117.49,-570 253.49,-570 253.49,-656 247.49,-662"/>
<polyline fill="none" stroke="black" points="247.49,-662 247.49,-656 "/>
<polyline fill="none" stroke="black" points="253.49,-656 247.49,-656 "/>
<text text-anchor="middle" x="185.49" y="-649.2" font-family="Arial" font-size="11.00">Event Object:</text>
<text text-anchor="middle" x="185.49" y="-637.2" font-family="Arial" font-size="11.00">{</text>
<text text-anchor="middle" x="185.49" y="-625.2" font-family="Arial" font-size="11.00"> &#160;time: number (seconds)</text>
<text text-anchor="middle" x="185.49" y="-613.2" font-family="Arial" font-size="11.00"> &#160;track: 0&#45;3</text>
<text text-anchor="middle" x="185.49" y="-601.2" font-family="Arial" font-size="11.00"> &#160;type: firework type</text>
<text text-anchor="middle" x="185.49" y="-589.2" font-family="Arial" font-size="11.00"> &#160;color: hex string</text>
<text text-anchor="middle" x="185.49" y="-577.2" font-family="Arial" font-size="11.00">}</text>
</g>
<!-- event_blocks -->
<g id="node6" class="node">
<title>event_blocks</title>
<path fill="#50c878" stroke="black" d="M721.99,-512C721.99,-512 638.99,-512 638.99,-512 632.99,-512 626.99,-506 626.99,-500 626.99,-500 626.99,-480 626.99,-480 626.99,-474 632.99,-468 638.99,-468 638.99,-468 721.99,-468 721.99,-468 727.99,-468 733.99,-474 733.99,-480 733.99,-480 733.99,-500 733.99,-500 733.99,-506 727.99,-512 721.99,-512"/>
<text text-anchor="middle" x="680.49" y="-499.2" font-family="Arial" font-size="11.00" fill="white">Event Blocks</text>
<text text-anchor="middle" x="680.49" y="-487.2" font-family="Arial" font-size="11.00" fill="white">Colored rectangles</text>
<text text-anchor="middle" x="680.49" y="-475.2" font-family="Arial" font-size="11.00" fill="white">Draggable</text>
</g>
<!-- event_struct&#45;&gt;event_blocks -->
<g id="edge34" class="edge">
<title>event_struct&#45;&gt;event_blocks</title>
<path fill="none" stroke="black" stroke-dasharray="5,2" d="M232.63,-569.86C242.82,-562.15 254.01,-555.01 265.49,-550 327.22,-523.04 516.72,-504.22 616.89,-495.86"/>
<polygon fill="black" stroke="black" points="617.21,-499.35 626.89,-495.04 616.64,-492.37 617.21,-499.35"/>
<text text-anchor="middle" x="374.49" y="-532.8" font-family="Arial" font-size="9.00">visual representation</text>
</g>
<!-- ruler -->
<g id="node3" class="node">
<title>ruler</title>
<path fill="#50c878" stroke="black" d="M831.99,-638C831.99,-638 760.99,-638 760.99,-638 754.99,-638 748.99,-632 748.99,-626 748.99,-626 748.99,-606 748.99,-606 748.99,-600 754.99,-594 760.99,-594 760.99,-594 831.99,-594 831.99,-594 837.99,-594 843.99,-600 843.99,-606 843.99,-606 843.99,-626 843.99,-626 843.99,-632 837.99,-638 831.99,-638"/>
<text text-anchor="middle" x="796.49" y="-625.2" font-family="Arial" font-size="11.00" fill="white">Timeline Ruler</text>
<text text-anchor="middle" x="796.49" y="-613.2" font-family="Arial" font-size="11.00" fill="white">Time markers</text>
<text text-anchor="middle" x="796.49" y="-601.2" font-family="Arial" font-size="11.00" fill="white">(major every 5s)</text>
</g>
<!-- playhead -->
<g id="node5" class="node">
<title>playhead</title>
<path fill="#ff6b6b" stroke="black" d="M832.99,-512C832.99,-512 763.99,-512 763.99,-512 757.99,-512 751.99,-506 751.99,-500 751.99,-500 751.99,-480 751.99,-480 751.99,-474 757.99,-468 763.99,-468 763.99,-468 832.99,-468 832.99,-468 838.99,-468 844.99,-474 844.99,-480 844.99,-480 844.99,-500 844.99,-500 844.99,-506 838.99,-512 832.99,-512"/>
<text text-anchor="middle" x="798.49" y="-499.2" font-family="Arial" font-size="11.00" fill="white">Playhead</text>
<text text-anchor="middle" x="798.49" y="-487.2" font-family="Arial" font-size="11.00" fill="white">Red vertical line</text>
<text text-anchor="middle" x="798.49" y="-475.2" font-family="Arial" font-size="11.00" fill="white">+ triangle</text>
</g>
<!-- ruler&#45;&gt;playhead -->
<g id="edge1" class="edge">
<title>ruler&#45;&gt;playhead</title>
<path fill="none" stroke="black" stroke-dasharray="5,2" d="M796.83,-593.97C797.14,-574.28 797.62,-544.62 797.98,-522.19"/>
<polygon fill="black" stroke="black" points="801.48,-522.19 798.15,-512.14 794.49,-522.08 801.48,-522.19"/>
</g>
<!-- tracks -->
<g id="node4" class="node">
<title>tracks</title>
<path fill="#50c878" stroke="black" d="M711.99,-638C711.99,-638 648.99,-638 648.99,-638 642.99,-638 636.99,-632 636.99,-626 636.99,-626 636.99,-606 636.99,-606 636.99,-600 642.99,-594 648.99,-594 648.99,-594 711.99,-594 711.99,-594 717.99,-594 723.99,-600 723.99,-606 723.99,-606 723.99,-626 723.99,-626 723.99,-632 717.99,-638 711.99,-638"/>
<text text-anchor="middle" x="680.49" y="-625.2" font-family="Arial" font-size="11.00" fill="white">4 Tracks</text>
<text text-anchor="middle" x="680.49" y="-613.2" font-family="Arial" font-size="11.00" fill="white">Parallel launch</text>
<text text-anchor="middle" x="680.49" y="-601.2" font-family="Arial" font-size="11.00" fill="white">channels</text>
</g>
<!-- tracks&#45;&gt;event_blocks -->
<g id="edge2" class="edge">
<title>tracks&#45;&gt;event_blocks</title>
<path fill="none" stroke="black" d="M680.49,-593.97C680.49,-574.28 680.49,-544.62 680.49,-522.19"/>
<polygon fill="black" stroke="black" points="683.99,-522.14 680.49,-512.14 676.99,-522.14 683.99,-522.14"/>
</g>
<!-- play_btn -->
<g id="node7" class="node">
<title>play_btn</title>
<path fill="#dda0dd" stroke="black" d="M1112.99,-780C1112.99,-780 1065.99,-780 1065.99,-780 1059.99,-780 1053.99,-774 1053.99,-768 1053.99,-768 1053.99,-756 1053.99,-756 1053.99,-750 1059.99,-744 1065.99,-744 1065.99,-744 1112.99,-744 1112.99,-744 1118.99,-744 1124.99,-750 1124.99,-756 1124.99,-756 1124.99,-768 1124.99,-768 1124.99,-774 1118.99,-780 1112.99,-780"/>
<text text-anchor="middle" x="1089.49" y="-765.2" font-family="Arial" font-size="11.00">Play/Pause</text>
<text text-anchor="middle" x="1089.49" y="-753.2" font-family="Arial" font-size="11.00">Button</text>
</g>
<!-- check_playing -->
<g id="node13" class="node">
<title>check_playing</title>
<path fill="#ffb347" stroke="black" d="M1078.41,-643.39C1078.41,-643.39 1023.57,-620.61 1023.57,-620.61 1018.03,-618.3 1018.03,-613.7 1023.57,-611.39 1023.57,-611.39 1078.41,-588.61 1078.41,-588.61 1083.95,-586.3 1095.03,-586.3 1100.57,-588.61 1100.57,-588.61 1155.41,-611.39 1155.41,-611.39 1160.95,-613.7 1160.95,-618.3 1155.41,-620.61 1155.41,-620.61 1100.57,-643.39 1100.57,-643.39 1095.03,-645.7 1083.95,-645.7 1078.41,-643.39"/>
<text text-anchor="middle" x="1089.49" y="-619.2" font-family="Arial" font-size="11.00">isPlaying &amp;&amp;</text>
<text text-anchor="middle" x="1089.49" y="-607.2" font-family="Arial" font-size="11.00">!isPaused?</text>
</g>
<!-- play_btn&#45;&gt;check_playing -->
<g id="edge3" class="edge">
<title>play_btn&#45;&gt;check_playing</title>
<path fill="none" stroke="black" d="M1089.49,-743.92C1089.49,-722.95 1089.49,-686.68 1089.49,-658.28"/>
<polygon fill="black" stroke="black" points="1092.99,-658.21 1089.49,-648.21 1085.99,-658.21 1092.99,-658.21"/>
</g>
<!-- stop_btn -->
<g id="node8" class="node">
<title>stop_btn</title>
<path fill="#dda0dd" stroke="black" d="M1023.49,-780C1023.49,-780 993.49,-780 993.49,-780 987.49,-780 981.49,-774 981.49,-768 981.49,-768 981.49,-756 981.49,-756 981.49,-750 987.49,-744 993.49,-744 993.49,-744 1023.49,-744 1023.49,-744 1029.49,-744 1035.49,-750 1035.49,-756 1035.49,-756 1035.49,-768 1035.49,-768 1035.49,-774 1029.49,-780 1023.49,-780"/>
<text text-anchor="middle" x="1008.49" y="-765.2" font-family="Arial" font-size="11.00">Stop</text>
<text text-anchor="middle" x="1008.49" y="-753.2" font-family="Arial" font-size="11.00">Button</text>
</g>
<!-- stop_playback -->
<g id="node21" class="node">
<title>stop_playback</title>
<path fill="#ffb347" stroke="black" d="M1156.49,-125C1156.49,-125 1096.49,-125 1096.49,-125 1090.49,-125 1084.49,-119 1084.49,-113 1084.49,-113 1084.49,-101 1084.49,-101 1084.49,-95 1090.49,-89 1096.49,-89 1096.49,-89 1156.49,-89 1156.49,-89 1162.49,-89 1168.49,-95 1168.49,-101 1168.49,-101 1168.49,-113 1168.49,-113 1168.49,-119 1162.49,-125 1156.49,-125"/>
<text text-anchor="middle" x="1126.49" y="-104.2" font-family="Arial" font-size="11.00">stopTimeline()</text>
</g>
<!-- stop_btn&#45;&gt;stop_playback -->
<g id="edge4" class="edge">
<title>stop_btn&#45;&gt;stop_playback</title>
<path fill="none" stroke="black" d="M986.5,-743.95C948.24,-713.44 873.49,-649.64 873.49,-617 873.49,-617 873.49,-617 873.49,-188 873.49,-146.26 1000.28,-123.52 1074.34,-113.8"/>
<polygon fill="black" stroke="black" points="1074.95,-117.26 1084.43,-112.52 1074.06,-110.31 1074.95,-117.26"/>
</g>
<!-- loop_btn -->
<g id="node9" class="node">
<title>loop_btn</title>
<path fill="#dda0dd" stroke="black" d="M1185.49,-780C1185.49,-780 1155.49,-780 1155.49,-780 1149.49,-780 1143.49,-774 1143.49,-768 1143.49,-768 1143.49,-756 1143.49,-756 1143.49,-750 1149.49,-744 1155.49,-744 1155.49,-744 1185.49,-744 1185.49,-744 1191.49,-744 1197.49,-750 1197.49,-756 1197.49,-756 1197.49,-768 1197.49,-768 1197.49,-774 1191.49,-780 1185.49,-780"/>
<text text-anchor="middle" x="1170.49" y="-765.2" font-family="Arial" font-size="11.00">Loop</text>
<text text-anchor="middle" x="1170.49" y="-753.2" font-family="Arial" font-size="11.00">Toggle</text>
</g>
<!-- loop_check -->
<g id="node19" class="node">
<title>loop_check</title>
<path fill="#ffb347" stroke="black" d="M1186.03,-203.42C1186.03,-203.42 1151.28,-192.58 1151.28,-192.58 1145.56,-190.79 1145.56,-187.21 1151.28,-185.42 1151.28,-185.42 1186.03,-174.58 1186.03,-174.58 1191.76,-172.79 1203.21,-172.79 1208.94,-174.58 1208.94,-174.58 1243.69,-185.42 1243.69,-185.42 1249.42,-187.21 1249.42,-190.79 1243.69,-192.58 1243.69,-192.58 1208.94,-203.42 1208.94,-203.42 1203.21,-205.21 1191.76,-205.21 1186.03,-203.42"/>
<text text-anchor="middle" x="1197.49" y="-186.2" font-family="Arial" font-size="11.00">isLooping?</text>
</g>
<!-- loop_btn&#45;&gt;loop_check -->
<g id="edge5" class="edge">
<title>loop_btn&#45;&gt;loop_check</title>
<path fill="none" stroke="black" d="M1193.65,-743.97C1242.27,-708.04 1350.49,-626.93 1350.49,-617 1350.49,-617 1350.49,-617 1350.49,-286 1350.49,-234.69 1287.98,-209.75 1242.87,-198.44"/>
<polygon fill="black" stroke="black" points="1243.51,-194.99 1232.97,-196.1 1241.9,-201.8 1243.51,-194.99"/>
</g>
<!-- zoom_btns -->
<g id="node10" class="node">
<title>zoom_btns</title>
<path fill="#dda0dd" stroke="black" d="M950.99,-780C950.99,-780 843.99,-780 843.99,-780 837.99,-780 831.99,-774 831.99,-768 831.99,-768 831.99,-756 831.99,-756 831.99,-750 837.99,-744 843.99,-744 843.99,-744 950.99,-744 950.99,-744 956.99,-744 962.99,-750 962.99,-756 962.99,-756 962.99,-768 962.99,-768 962.99,-774 956.99,-780 950.99,-780"/>
<text text-anchor="middle" x="897.49" y="-765.2" font-family="Arial" font-size="11.00">Zoom +/&#45;</text>
<text text-anchor="middle" x="897.49" y="-753.2" font-family="Arial" font-size="11.00">Adjust pixelsPerSecond</text>
</g>
<!-- zoom_btns&#45;&gt;ruler -->
<g id="edge6" class="edge">
<title>zoom_btns&#45;&gt;ruler</title>
<path fill="none" stroke="black" d="M852.79,-743.99C844.49,-739.19 836.54,-733.25 830.49,-726 812.08,-703.97 803.62,-671.98 799.74,-648.35"/>
<polygon fill="black" stroke="black" points="803.16,-647.54 798.26,-638.15 796.23,-648.55 803.16,-647.54"/>
<text text-anchor="middle" x="844.99" y="-718.8" font-family="Arial" font-size="9.00">redraw</text>
</g>
<!-- duration_input -->
<g id="node11" class="node">
<title>duration_input</title>
<path fill="#dda0dd" stroke="black" d="M1417.49,-780C1417.49,-780 1357.49,-780 1357.49,-780 1351.49,-780 1345.49,-774 1345.49,-768 1345.49,-768 1345.49,-756 1345.49,-756 1345.49,-750 1351.49,-744 1357.49,-744 1357.49,-744 1417.49,-744 1417.49,-744 1423.49,-744 1429.49,-750 1429.49,-756 1429.49,-756 1429.49,-768 1429.49,-768 1429.49,-774 1423.49,-780 1417.49,-780"/>
<text text-anchor="middle" x="1387.49" y="-765.2" font-family="Arial" font-size="11.00">Duration</text>
<text text-anchor="middle" x="1387.49" y="-753.2" font-family="Arial" font-size="11.00">Input (5&#45;300s)</text>
</g>
<!-- duration_input&#45;&gt;state_vars -->
<g id="edge7" class="edge">
<title>duration_input&#45;&gt;state_vars</title>
<path fill="none" stroke="black" d="M1424.03,-743.94C1429.86,-741.26 1435.83,-738.54 1441.49,-736 1451.66,-731.44 1455.19,-732.15 1464.49,-726 1483.69,-713.3 1502.62,-697.26 1519.42,-681.41"/>
<polygon fill="black" stroke="black" points="1522.18,-683.61 1526.97,-674.16 1517.34,-678.56 1522.18,-683.61"/>
<text text-anchor="middle" x="1502.99" y="-718.8" font-family="Arial" font-size="9.00">set duration</text>
</g>
<!-- save_load -->
<g id="node12" class="node">
<title>save_load</title>
<path fill="#dda0dd" stroke="black" d="M1315.49,-780C1315.49,-780 1227.49,-780 1227.49,-780 1221.49,-780 1215.49,-774 1215.49,-768 1215.49,-768 1215.49,-756 1215.49,-756 1215.49,-750 1221.49,-744 1227.49,-744 1227.49,-744 1315.49,-744 1315.49,-744 1321.49,-744 1327.49,-750 1327.49,-756 1327.49,-756 1327.49,-768 1327.49,-768 1327.49,-774 1321.49,-780 1315.49,-780"/>
<text text-anchor="middle" x="1271.49" y="-765.2" font-family="Arial" font-size="11.00">Save/Load</text>
<text text-anchor="middle" x="1271.49" y="-753.2" font-family="Arial" font-size="11.00">JSON export/import</text>
</g>
<!-- save_load&#45;&gt;state_vars -->
<g id="edge33" class="edge">
<title>save_load&#45;&gt;state_vars</title>
<path fill="none" stroke="black" d="M1316.08,-743.92C1336.35,-736.1 1356.85,-728.11 1361.49,-726 1370.17,-722.04 1371.99,-720.35 1380.49,-716 1408.93,-701.44 1439.78,-685.95 1468.52,-671.64"/>
<polygon fill="black" stroke="black" points="1470.37,-674.63 1477.77,-667.05 1467.26,-668.36 1470.37,-674.63"/>
<text text-anchor="middle" x="1420.49" y="-718.8" font-family="Arial" font-size="9.00">export/import JSON</text>
</g>
<!-- increment_time -->
<g id="node14" class="node">
<title>increment_time</title>
<path fill="#ffb347" stroke="black" d="M1119.49,-508C1119.49,-508 1041.49,-508 1041.49,-508 1035.49,-508 1029.49,-502 1029.49,-496 1029.49,-496 1029.49,-484 1029.49,-484 1029.49,-478 1035.49,-472 1041.49,-472 1041.49,-472 1119.49,-472 1119.49,-472 1125.49,-472 1131.49,-478 1131.49,-484 1131.49,-484 1131.49,-496 1131.49,-496 1131.49,-502 1125.49,-508 1119.49,-508"/>
<text text-anchor="middle" x="1080.49" y="-487.2" font-family="Arial" font-size="11.00">currentTime += dt</text>
</g>
<!-- check_playing&#45;&gt;increment_time -->
<g id="edge8" class="edge">
<title>check_playing&#45;&gt;increment_time</title>
<path fill="none" stroke="black" d="M1087.29,-584.67C1085.81,-564.34 1083.88,-537.81 1082.46,-518.17"/>
<polygon fill="black" stroke="black" points="1085.94,-517.78 1081.73,-508.05 1078.96,-518.28 1085.94,-517.78"/>
<text text-anchor="middle" x="1090.99" y="-532.8" font-family="Arial" font-size="9.00">yes</text>
</g>
<!-- update_display -->
<g id="node22" class="node">
<title>update_display</title>
<path fill="#ffb347" stroke="black" d="M1199.99,-52C1199.99,-52 1112.99,-52 1112.99,-52 1106.99,-52 1100.99,-46 1100.99,-40 1100.99,-40 1100.99,-28 1100.99,-28 1100.99,-22 1106.99,-16 1112.99,-16 1112.99,-16 1199.99,-16 1199.99,-16 1205.99,-16 1211.99,-22 1211.99,-28 1211.99,-28 1211.99,-40 1211.99,-40 1211.99,-46 1205.99,-52 1199.99,-52"/>
<text text-anchor="middle" x="1156.49" y="-37.2" font-family="Arial" font-size="11.00">updatePlayhead()</text>
<text text-anchor="middle" x="1156.49" y="-25.2" font-family="Arial" font-size="11.00">Update time display</text>
</g>
<!-- check_playing&#45;&gt;update_display -->
<g id="edge9" class="edge">
<title>check_playing&#45;&gt;update_display</title>
<path fill="none" stroke="black" stroke-dasharray="5,2" d="M1125.65,-598.93C1188.56,-570.42 1311.49,-512.02 1311.49,-491 1311.49,-491 1311.49,-491 1311.49,-106 1311.49,-64.21 1264.35,-46.92 1222.06,-39.82"/>
<polygon fill="black" stroke="black" points="1222.42,-36.33 1212.01,-38.3 1221.37,-43.25 1222.42,-36.33"/>
<text text-anchor="middle" x="1316.99" y="-284.8" font-family="Arial" font-size="9.00">no</text>
</g>
<!-- check_events -->
<g id="node15" class="node">
<title>check_events</title>
<path fill="#ffb347" stroke="black" d="M1063.69,-428.82C1063.69,-428.82 914.29,-401.18 914.29,-401.18 908.39,-400.09 908.39,-397.91 914.29,-396.82 914.29,-396.82 1063.69,-369.18 1063.69,-369.18 1069.59,-368.09 1081.39,-368.09 1087.29,-369.18 1087.29,-369.18 1236.69,-396.82 1236.69,-396.82 1242.59,-397.91 1242.59,-400.09 1236.69,-401.18 1236.69,-401.18 1087.29,-428.82 1087.29,-428.82 1081.39,-429.91 1069.59,-429.91 1063.69,-428.82"/>
<text text-anchor="middle" x="1075.49" y="-402.2" font-family="Arial" font-size="11.00">While event[lastEventIndex].time</text>
<text text-anchor="middle" x="1075.49" y="-390.2" font-family="Arial" font-size="11.00">&lt;= currentTime</text>
</g>
<!-- increment_time&#45;&gt;check_events -->
<g id="edge10" class="edge">
<title>increment_time&#45;&gt;check_events</title>
<path fill="none" stroke="black" d="M1079.52,-471.84C1079.03,-463.04 1078.4,-451.9 1077.79,-441.04"/>
<polygon fill="black" stroke="black" points="1081.27,-440.59 1077.22,-430.8 1074.28,-440.98 1081.27,-440.59"/>
</g>
<!-- trigger_event -->
<g id="node16" class="node">
<title>trigger_event</title>
<path fill="#ff6b6b" stroke="black" d="M1010.99,-321C1010.99,-321 933.99,-321 933.99,-321 927.99,-321 921.99,-315 921.99,-309 921.99,-309 921.99,-265 921.99,-265 921.99,-259 927.99,-253 933.99,-253 933.99,-253 1010.99,-253 1010.99,-253 1016.99,-253 1022.99,-259 1022.99,-265 1022.99,-265 1022.99,-309 1022.99,-309 1022.99,-315 1016.99,-321 1010.99,-321"/>
<text text-anchor="middle" x="972.49" y="-308.2" font-family="Arial" font-size="11.00" fill="white">launchAtPosition(</text>
<text text-anchor="middle" x="972.49" y="-296.2" font-family="Arial" font-size="11.00" fill="white"> &#160;x, y, z,</text>
<text text-anchor="middle" x="972.49" y="-284.2" font-family="Arial" font-size="11.00" fill="white"> &#160;event.type,</text>
<text text-anchor="middle" x="972.49" y="-272.2" font-family="Arial" font-size="11.00" fill="white"> &#160;event.color</text>
<text text-anchor="middle" x="972.49" y="-260.2" font-family="Arial" font-size="11.00" fill="white">)</text>
</g>
<!-- check_events&#45;&gt;trigger_event -->
<g id="edge11" class="edge">
<title>check_events&#45;&gt;trigger_event</title>
<path fill="none" stroke="black" d="M1050.55,-371.37C1038.49,-358.49 1023.74,-342.74 1010.33,-328.41"/>
<polygon fill="black" stroke="black" points="1012.85,-325.98 1003.46,-321.07 1007.74,-330.77 1012.85,-325.98"/>
<text text-anchor="middle" x="1050.99" y="-341.8" font-family="Arial" font-size="9.00">event ready</text>
</g>
<!-- check_end -->
<g id="node18" class="node">
<title>check_end</title>
<path fill="#ffb347" stroke="black" d="M1146.63,-303.18C1146.63,-303.18 1053.13,-288.82 1053.13,-288.82 1047.2,-287.91 1047.2,-286.09 1053.13,-285.18 1053.13,-285.18 1146.63,-270.82 1146.63,-270.82 1152.56,-269.91 1164.42,-269.91 1170.35,-270.82 1170.35,-270.82 1263.84,-285.18 1263.84,-285.18 1269.77,-286.09 1269.77,-287.91 1263.84,-288.82 1263.84,-288.82 1170.35,-303.18 1170.35,-303.18 1164.42,-304.09 1152.56,-304.09 1146.63,-303.18"/>
<text text-anchor="middle" x="1158.49" y="-284.2" font-family="Arial" font-size="11.00">currentTime &gt;= duration?</text>
</g>
<!-- check_events&#45;&gt;check_end -->
<g id="edge14" class="edge">
<title>check_events&#45;&gt;check_end</title>
<path fill="none" stroke="black" d="M1096.22,-370.53C1109.87,-352.43 1127.57,-328.97 1140.61,-311.69"/>
<polygon fill="black" stroke="black" points="1143.73,-313.37 1146.96,-303.28 1138.14,-309.16 1143.73,-313.37"/>
<text text-anchor="middle" x="1150.49" y="-341.8" font-family="Arial" font-size="9.00">no more events</text>
</g>
<!-- increment_idx -->
<g id="node17" class="node">
<title>increment_idx</title>
<path fill="#ffb347" stroke="black" d="M995.99,-207C995.99,-207 918.99,-207 918.99,-207 912.99,-207 906.99,-201 906.99,-195 906.99,-195 906.99,-183 906.99,-183 906.99,-177 912.99,-171 918.99,-171 918.99,-171 995.99,-171 995.99,-171 1001.99,-171 1007.99,-177 1007.99,-183 1007.99,-183 1007.99,-195 1007.99,-195 1007.99,-201 1001.99,-207 995.99,-207"/>
<text text-anchor="middle" x="957.49" y="-186.2" font-family="Arial" font-size="11.00">lastEventIndex++</text>
</g>
<!-- trigger_event&#45;&gt;increment_idx -->
<g id="edge12" class="edge">
<title>trigger_event&#45;&gt;increment_idx</title>
<path fill="none" stroke="black" d="M967.33,-252.96C965.5,-241.29 963.47,-228.3 961.73,-217.17"/>
<polygon fill="black" stroke="black" points="965.17,-216.51 960.17,-207.17 958.26,-217.59 965.17,-216.51"/>
</g>
<!-- increment_idx&#45;&gt;check_events -->
<g id="edge13" class="edge">
<title>increment_idx&#45;&gt;check_events</title>
<path fill="none" stroke="black" d="M941.14,-207.14C931.01,-218.99 918.93,-235.69 913.49,-253 904.42,-281.83 897.34,-295.45 913.49,-321 930.67,-348.2 960.38,-365.99 989.69,-377.53"/>
<polygon fill="black" stroke="black" points="988.59,-380.85 999.18,-381.06 991.03,-374.29 988.59,-380.85"/>
</g>
<!-- check_end&#45;&gt;loop_check -->
<g id="edge15" class="edge">
<title>check_end&#45;&gt;loop_check</title>
<path fill="none" stroke="black" d="M1165.1,-269.71C1171.24,-254.6 1180.47,-231.89 1187.5,-214.57"/>
<polygon fill="black" stroke="black" points="1190.83,-215.68 1191.35,-205.1 1184.35,-213.04 1190.83,-215.68"/>
<text text-anchor="middle" x="1189.99" y="-227.8" font-family="Arial" font-size="9.00">yes</text>
</g>
<!-- check_end&#45;&gt;update_display -->
<g id="edge16" class="edge">
<title>check_end&#45;&gt;update_display</title>
<path fill="none" stroke="black" d="M1147.29,-270.56C1128.06,-242.99 1089.5,-182.76 1075.49,-125 1071.72,-109.45 1067.94,-103.11 1075.49,-89 1082.49,-75.92 1094.2,-65.47 1106.58,-57.37"/>
<polygon fill="black" stroke="black" points="1108.47,-60.32 1115.21,-52.14 1104.84,-54.33 1108.47,-60.32"/>
<text text-anchor="middle" x="1088.99" y="-145.8" font-family="Arial" font-size="9.00">no</text>
</g>
<!-- reset_time -->
<g id="node20" class="node">
<title>reset_time</title>
<path fill="#ffb347" stroke="black" d="M1280.49,-125C1280.49,-125 1198.49,-125 1198.49,-125 1192.49,-125 1186.49,-119 1186.49,-113 1186.49,-113 1186.49,-101 1186.49,-101 1186.49,-95 1192.49,-89 1198.49,-89 1198.49,-89 1280.49,-89 1280.49,-89 1286.49,-89 1292.49,-95 1292.49,-101 1292.49,-101 1292.49,-113 1292.49,-113 1292.49,-119 1286.49,-125 1280.49,-125"/>
<text text-anchor="middle" x="1239.49" y="-110.2" font-family="Arial" font-size="11.00">currentTime = 0</text>
<text text-anchor="middle" x="1239.49" y="-98.2" font-family="Arial" font-size="11.00">lastEventIndex = 0</text>
</g>
<!-- loop_check&#45;&gt;reset_time -->
<g id="edge17" class="edge">
<title>loop_check&#45;&gt;reset_time</title>
<path fill="none" stroke="black" d="M1205.19,-173.33C1210.95,-162.36 1218.96,-147.09 1225.8,-134.07"/>
<polygon fill="black" stroke="black" points="1228.97,-135.56 1230.52,-125.08 1222.77,-132.31 1228.97,-135.56"/>
<text text-anchor="middle" x="1227.99" y="-145.8" font-family="Arial" font-size="9.00">yes</text>
</g>
<!-- loop_check&#45;&gt;stop_playback -->
<g id="edge18" class="edge">
<title>loop_check&#45;&gt;stop_playback</title>
<path fill="none" stroke="black" d="M1185.44,-174.43C1175.39,-163.1 1160.79,-146.65 1148.64,-132.96"/>
<polygon fill="black" stroke="black" points="1151.07,-130.43 1141.82,-125.27 1145.84,-135.08 1151.07,-130.43"/>
<text text-anchor="middle" x="1170.99" y="-145.8" font-family="Arial" font-size="9.00">no</text>
</g>
<!-- reset_time&#45;&gt;update_display -->
<g id="edge19" class="edge">
<title>reset_time&#45;&gt;update_display</title>
<path fill="none" stroke="black" d="M1219.4,-88.81C1208.79,-79.74 1195.62,-68.48 1184.08,-58.6"/>
<polygon fill="black" stroke="black" points="1186.27,-55.87 1176.39,-52.03 1181.72,-61.19 1186.27,-55.87"/>
</g>
<!-- stop_playback&#45;&gt;update_display -->
<g id="edge20" class="edge">
<title>stop_playback&#45;&gt;update_display</title>
<path fill="none" stroke="black" d="M1133.75,-88.81C1137.21,-80.62 1141.44,-70.62 1145.3,-61.48"/>
<polygon fill="black" stroke="black" points="1148.62,-62.6 1149.29,-52.03 1142.18,-59.88 1148.62,-62.6"/>
</g>
<!-- click_timeline -->
<g id="node23" class="node">
<title>click_timeline</title>
<path fill="#9370db" stroke="black" d="M579.49,-958C579.49,-958 535.49,-958 535.49,-958 529.49,-958 523.49,-952 523.49,-946 523.49,-946 523.49,-934 523.49,-934 523.49,-928 529.49,-922 535.49,-922 535.49,-922 579.49,-922 579.49,-922 585.49,-922 591.49,-928 591.49,-934 591.49,-934 591.49,-946 591.49,-946 591.49,-952 585.49,-958 579.49,-958"/>
<text text-anchor="middle" x="557.49" y="-943.2" font-family="Arial" font-size="11.00" fill="white">Click on</text>
<text text-anchor="middle" x="557.49" y="-931.2" font-family="Arial" font-size="11.00" fill="white">Drop Zone</text>
</g>
<!-- calc_time -->
<g id="node24" class="node">
<title>calc_time</title>
<path fill="#9370db" stroke="black" d="M591.49,-885C591.49,-885 523.49,-885 523.49,-885 517.49,-885 511.49,-879 511.49,-873 511.49,-873 511.49,-853 511.49,-853 511.49,-847 517.49,-841 523.49,-841 523.49,-841 591.49,-841 591.49,-841 597.49,-841 603.49,-847 603.49,-853 603.49,-853 603.49,-873 603.49,-873 603.49,-879 597.49,-885 591.49,-885"/>
<text text-anchor="middle" x="557.49" y="-872.2" font-family="Arial" font-size="11.00" fill="white">Calculate time</text>
<text text-anchor="middle" x="557.49" y="-860.2" font-family="Arial" font-size="11.00" fill="white">from click X</text>
<text text-anchor="middle" x="557.49" y="-848.2" font-family="Arial" font-size="11.00" fill="white">and scroll offset</text>
</g>
<!-- click_timeline&#45;&gt;calc_time -->
<g id="edge21" class="edge">
<title>click_timeline&#45;&gt;calc_time</title>
<path fill="none" stroke="black" d="M557.49,-921.98C557.49,-914.15 557.49,-904.61 557.49,-895.54"/>
<polygon fill="black" stroke="black" points="560.99,-895.24 557.49,-885.24 553.99,-895.24 560.99,-895.24"/>
</g>
<!-- detect_track -->
<g id="node25" class="node">
<title>detect_track</title>
<path fill="#9370db" stroke="black" d="M553.49,-780C553.49,-780 503.49,-780 503.49,-780 497.49,-780 491.49,-774 491.49,-768 491.49,-768 491.49,-756 491.49,-756 491.49,-750 497.49,-744 503.49,-744 503.49,-744 553.49,-744 553.49,-744 559.49,-744 565.49,-750 565.49,-756 565.49,-756 565.49,-768 565.49,-768 565.49,-774 559.49,-780 553.49,-780"/>
<text text-anchor="middle" x="528.49" y="-765.2" font-family="Arial" font-size="11.00" fill="white">Detect track</text>
<text text-anchor="middle" x="528.49" y="-753.2" font-family="Arial" font-size="11.00" fill="white">from click Y</text>
</g>
<!-- calc_time&#45;&gt;detect_track -->
<g id="edge22" class="edge">
<title>calc_time&#45;&gt;detect_track</title>
<path fill="none" stroke="black" d="M551.19,-840.52C546.85,-825.68 541.04,-805.84 536.38,-789.95"/>
<polygon fill="black" stroke="black" points="539.69,-788.78 533.52,-780.16 532.97,-790.75 539.69,-788.78"/>
</g>
<!-- add_event -->
<g id="node26" class="node">
<title>add_event</title>
<path fill="#9370db" stroke="black" d="M428.49,-650C428.49,-650 346.49,-650 346.49,-650 340.49,-650 334.49,-644 334.49,-638 334.49,-638 334.49,-594 334.49,-594 334.49,-588 340.49,-582 346.49,-582 346.49,-582 428.49,-582 428.49,-582 434.49,-582 440.49,-588 440.49,-594 440.49,-594 440.49,-638 440.49,-638 440.49,-644 434.49,-650 428.49,-650"/>
<text text-anchor="middle" x="387.49" y="-637.2" font-family="Arial" font-size="11.00" fill="white">addTimelineEvent(</text>
<text text-anchor="middle" x="387.49" y="-625.2" font-family="Arial" font-size="11.00" fill="white"> &#160;time, track,</text>
<text text-anchor="middle" x="387.49" y="-613.2" font-family="Arial" font-size="11.00" fill="white"> &#160;selectedType,</text>
<text text-anchor="middle" x="387.49" y="-601.2" font-family="Arial" font-size="11.00" fill="white"> &#160;selectedColor</text>
<text text-anchor="middle" x="387.49" y="-589.2" font-family="Arial" font-size="11.00" fill="white">)</text>
</g>
<!-- detect_track&#45;&gt;add_event -->
<g id="edge23" class="edge">
<title>detect_track&#45;&gt;add_event</title>
<path fill="none" stroke="black" d="M511.76,-743.92C491.07,-722.78 455.16,-686.11 427.25,-657.61"/>
<polygon fill="black" stroke="black" points="429.47,-654.87 419.97,-650.18 424.47,-659.77 429.47,-654.87"/>
</g>
<!-- add_event&#45;&gt;event_blocks -->
<g id="edge24" class="edge">
<title>add_event&#45;&gt;event_blocks</title>
<path fill="none" stroke="black" d="M440.55,-592.54C491.57,-570.95 568.56,-538.37 621.49,-515.97"/>
<polygon fill="black" stroke="black" points="622.91,-519.17 630.75,-512.05 620.18,-512.72 622.91,-519.17"/>
<text text-anchor="middle" x="615.99" y="-532.8" font-family="Arial" font-size="9.00">renderEvents()</text>
</g>
<!-- drag_event -->
<g id="node27" class="node">
<title>drag_event</title>
<path fill="#9370db" stroke="black" d="M352.99,-958C352.99,-958 305.99,-958 305.99,-958 299.99,-958 293.99,-952 293.99,-946 293.99,-946 293.99,-934 293.99,-934 293.99,-928 299.99,-922 305.99,-922 305.99,-922 352.99,-922 352.99,-922 358.99,-922 364.99,-928 364.99,-934 364.99,-934 364.99,-946 364.99,-946 364.99,-952 358.99,-958 352.99,-958"/>
<text text-anchor="middle" x="329.49" y="-943.2" font-family="Arial" font-size="11.00" fill="white">Drag Event</text>
<text text-anchor="middle" x="329.49" y="-931.2" font-family="Arial" font-size="11.00" fill="white">Block</text>
</g>
<!-- update_time -->
<g id="node28" class="node">
<title>update_time</title>
<path fill="#9370db" stroke="black" d="M369.49,-881C369.49,-881 289.49,-881 289.49,-881 283.49,-881 277.49,-875 277.49,-869 277.49,-869 277.49,-857 277.49,-857 277.49,-851 283.49,-845 289.49,-845 289.49,-845 369.49,-845 369.49,-845 375.49,-845 381.49,-851 381.49,-857 381.49,-857 381.49,-869 381.49,-869 381.49,-875 375.49,-881 369.49,-881"/>
<text text-anchor="middle" x="329.49" y="-866.2" font-family="Arial" font-size="11.00" fill="white">Update event.time</text>
<text text-anchor="middle" x="329.49" y="-854.2" font-family="Arial" font-size="11.00" fill="white">based on drag X</text>
</g>
<!-- drag_event&#45;&gt;update_time -->
<g id="edge25" class="edge">
<title>drag_event&#45;&gt;update_time</title>
<path fill="none" stroke="black" d="M329.49,-921.98C329.49,-912.94 329.49,-901.6 329.49,-891.35"/>
<polygon fill="black" stroke="black" points="332.99,-891.21 329.49,-881.21 325.99,-891.21 332.99,-891.21"/>
</g>
<!-- update_time&#45;&gt;event_blocks -->
<g id="edge26" class="edge">
<title>update_time&#45;&gt;event_blocks</title>
<path fill="none" stroke="black" d="M277.34,-858.77C213.09,-853.97 108.39,-843.28 75.49,-823 -27.8,-759.33 -22.05,-622.17 75.49,-550 118.31,-518.31 469.91,-499.91 616.6,-493.55"/>
<polygon fill="black" stroke="black" points="616.96,-497.03 626.8,-493.11 616.66,-490.04 616.96,-497.03"/>
<text text-anchor="middle" x="34.99" y="-718.8" font-family="Arial" font-size="9.00">renderEvents()</text>
</g>
<!-- scrub_ruler -->
<g id="node29" class="node">
<title>scrub_ruler</title>
<path fill="#9370db" stroke="black" d="M467.99,-958C467.99,-958 424.99,-958 424.99,-958 418.99,-958 412.99,-952 412.99,-946 412.99,-946 412.99,-934 412.99,-934 412.99,-928 418.99,-922 424.99,-922 424.99,-922 467.99,-922 467.99,-922 473.99,-922 479.99,-928 479.99,-934 479.99,-934 479.99,-946 479.99,-946 479.99,-952 473.99,-958 467.99,-958"/>
<text text-anchor="middle" x="446.49" y="-943.2" font-family="Arial" font-size="11.00" fill="white">Click/Drag</text>
<text text-anchor="middle" x="446.49" y="-931.2" font-family="Arial" font-size="11.00" fill="white">on Ruler</text>
</g>
<!-- set_playhead -->
<g id="node30" class="node">
<title>set_playhead</title>
<path fill="#9370db" stroke="black" d="M480.99,-881C480.99,-881 411.99,-881 411.99,-881 405.99,-881 399.99,-875 399.99,-869 399.99,-869 399.99,-857 399.99,-857 399.99,-851 405.99,-845 411.99,-845 411.99,-845 480.99,-845 480.99,-845 486.99,-845 492.99,-851 492.99,-857 492.99,-857 492.99,-869 492.99,-869 492.99,-875 486.99,-881 480.99,-881"/>
<text text-anchor="middle" x="446.49" y="-866.2" font-family="Arial" font-size="11.00" fill="white">Set currentTime</text>
<text text-anchor="middle" x="446.49" y="-854.2" font-family="Arial" font-size="11.00" fill="white">from position</text>
</g>
<!-- scrub_ruler&#45;&gt;set_playhead -->
<g id="edge27" class="edge">
<title>scrub_ruler&#45;&gt;set_playhead</title>
<path fill="none" stroke="black" d="M446.49,-921.98C446.49,-912.94 446.49,-901.6 446.49,-891.35"/>
<polygon fill="black" stroke="black" points="449.99,-891.21 446.49,-881.21 442.99,-891.21 449.99,-891.21"/>
</g>
<!-- set_playhead&#45;&gt;playhead -->
<g id="edge28" class="edge">
<title>set_playhead&#45;&gt;playhead</title>
<path fill="none" stroke="black" d="M401.92,-844.99C313.47,-810.81 122.75,-734.74 105.49,-708 67.4,-649.01 56.83,-600.63 105.49,-550 115.16,-539.94 342.55,-540.78 356.49,-540 525.39,-530.53 573.32,-548.66 742,-512.02"/>
<polygon fill="black" stroke="black" points="742.95,-515.4 751.97,-509.83 741.45,-508.56 742.95,-515.4"/>
<text text-anchor="middle" x="160.49" y="-718.8" font-family="Arial" font-size="9.00">update position</text>
</g>
<!-- opener -->
<g id="node31" class="node">
<title>opener</title>
<path fill="#deb887" stroke="black" d="M1853.49,-780C1853.49,-780 1791.49,-780 1791.49,-780 1785.49,-780 1779.49,-774 1779.49,-768 1779.49,-768 1779.49,-756 1779.49,-756 1779.49,-750 1785.49,-744 1791.49,-744 1791.49,-744 1853.49,-744 1853.49,-744 1859.49,-744 1865.49,-750 1865.49,-756 1865.49,-756 1865.49,-768 1865.49,-768 1865.49,-774 1859.49,-780 1853.49,-780"/>
<text text-anchor="middle" x="1822.49" y="-765.2" font-family="Arial" font-size="11.00">Opening Burst</text>
<text text-anchor="middle" x="1822.49" y="-753.2" font-family="Arial" font-size="11.00">9 events, 15s</text>
</g>
<!-- opener&#45;&gt;state_vars -->
<g id="edge29" class="edge">
<title>opener&#45;&gt;state_vars</title>
<path fill="none" stroke="black" d="M1793.66,-743.92C1766.54,-727.85 1724.27,-702.8 1684.42,-679.18"/>
<polygon fill="black" stroke="black" points="1686.08,-676.1 1675.69,-674.01 1682.51,-682.12 1686.08,-676.1"/>
<text text-anchor="middle" x="1765.99" y="-718.8" font-family="Arial" font-size="9.00">load</text>
</g>
<!-- crescendo -->
<g id="node32" class="node">
<title>crescendo</title>
<path fill="#deb887" stroke="black" d="M1527.49,-780C1527.49,-780 1465.49,-780 1465.49,-780 1459.49,-780 1453.49,-774 1453.49,-768 1453.49,-768 1453.49,-756 1453.49,-756 1453.49,-750 1459.49,-744 1465.49,-744 1465.49,-744 1527.49,-744 1527.49,-744 1533.49,-744 1539.49,-750 1539.49,-756 1539.49,-756 1539.49,-768 1539.49,-768 1539.49,-774 1533.49,-780 1527.49,-780"/>
<text text-anchor="middle" x="1496.49" y="-765.2" font-family="Arial" font-size="11.00">Crescendo</text>
<text text-anchor="middle" x="1496.49" y="-753.2" font-family="Arial" font-size="11.00">14 events, 20s</text>
</g>
<!-- crescendo&#45;&gt;state_vars -->
<g id="edge30" class="edge">
<title>crescendo&#45;&gt;state_vars</title>
<path fill="none" stroke="black" d="M1519.93,-743.78C1525.9,-738.57 1531.92,-732.49 1536.49,-726 1545.48,-713.25 1552.94,-698.35 1558.98,-683.74"/>
<polygon fill="black" stroke="black" points="1562.33,-684.79 1562.75,-674.21 1555.82,-682.22 1562.33,-684.79"/>
<text text-anchor="middle" x="1550.99" y="-718.8" font-family="Arial" font-size="9.00">load</text>
</g>
<!-- finale -->
<g id="node33" class="node">
<title>finale</title>
<path fill="#deb887" stroke="black" d="M1631.49,-780C1631.49,-780 1569.49,-780 1569.49,-780 1563.49,-780 1557.49,-774 1557.49,-768 1557.49,-768 1557.49,-756 1557.49,-756 1557.49,-750 1563.49,-744 1569.49,-744 1569.49,-744 1631.49,-744 1631.49,-744 1637.49,-744 1643.49,-750 1643.49,-756 1643.49,-756 1643.49,-768 1643.49,-768 1643.49,-774 1637.49,-780 1631.49,-780"/>
<text text-anchor="middle" x="1600.49" y="-765.2" font-family="Arial" font-size="11.00">Grand Finale</text>
<text text-anchor="middle" x="1600.49" y="-753.2" font-family="Arial" font-size="11.00">66 events, 25s</text>
</g>
<!-- finale&#45;&gt;state_vars -->
<g id="edge31" class="edge">
<title>finale&#45;&gt;state_vars</title>
<path fill="none" stroke="black" d="M1598,-743.92C1595.82,-728.99 1592.51,-706.32 1589.29,-684.24"/>
<polygon fill="black" stroke="black" points="1592.73,-683.56 1587.83,-674.17 1585.8,-684.57 1592.73,-683.56"/>
<text text-anchor="middle" x="1603.99" y="-718.8" font-family="Arial" font-size="9.00">load</text>
</g>
<!-- gandalf -->
<g id="node34" class="node">
<title>gandalf</title>
<path fill="#deb887" stroke="black" d="M1749.49,-780C1749.49,-780 1673.49,-780 1673.49,-780 1667.49,-780 1661.49,-774 1661.49,-768 1661.49,-768 1661.49,-756 1661.49,-756 1661.49,-750 1667.49,-744 1673.49,-744 1673.49,-744 1749.49,-744 1749.49,-744 1755.49,-744 1761.49,-750 1761.49,-756 1761.49,-756 1761.49,-768 1761.49,-768 1761.49,-774 1755.49,-780 1749.49,-780"/>
<text text-anchor="middle" x="1711.49" y="-765.2" font-family="Arial" font-size="11.00">Gandalf&#39;s Display</text>
<text text-anchor="middle" x="1711.49" y="-753.2" font-family="Arial" font-size="11.00">14 events, 30s</text>
</g>
<!-- gandalf&#45;&gt;state_vars -->
<g id="edge32" class="edge">
<title>gandalf&#45;&gt;state_vars</title>
<path fill="none" stroke="black" d="M1695.83,-743.92C1681.59,-728.39 1659.67,-704.47 1638.67,-681.56"/>
<polygon fill="black" stroke="black" points="1641.23,-679.18 1631.9,-674.17 1636.07,-683.91 1641.23,-679.18"/>
<text text-anchor="middle" x="1684.99" y="-718.8" font-family="Arial" font-size="9.00">load</text>
</g>
</g>
</svg>
